<svg xmlns="http://www.w3.org/2000/svg" width="960.3157958984375" height="949.000732421875" viewBox="-437.1628723144531 -479.61181640625 960.3157958984375 949.000732421875"><title>Neo4j Graph Visualization</title><desc>Created using Neo4j (http://www.neo4j.com/)</desc><g class="layer relationships"><g class="relationship" transform="translate(-206.2426358672089 223.13616307764207) rotate(316.0098025561169)"><path class="b-outline" fill="#A5ABB6" stroke="none" d="M 25 0.5 L 117.47213145719468 0.5 L 117.47213145719468 -0.5 L 25 -0.5 Z M 182.59713145719468 0.5 L 275.06926291438936 0.5 L 275.06926291438936 3.5 L 282.06926291438936 0 L 275.06926291438936 -3.5 L 275.06926291438936 -0.5 L 182.59713145719468 -0.5 Z"/><text text-anchor="middle" pointer-events="none" font-size="8px" fill="#000000" x="150.03463145719468" y="3" font-family="Helvetica Neue, Helvetica, Arial, sans-serif">IDENTIFIES_AS</text></g><g class="relationship" transform="translate(-206.2426358672089 223.13616307764207) rotate(237.1840585569613)"><path class="b-outline" fill="#A5ABB6" stroke="none" d="M 25 0.5 L 55.7539065950527 0.5 L 55.7539065950527 -0.5 L 25 -0.5 Z M 85.3046878450527 0.5 L 116.0585944401054 0.5 L 116.0585944401054 3.5 L 123.0585944401054 0 L 116.0585944401054 -3.5 L 116.0585944401054 -0.5 L 85.3046878450527 -0.5 Z"/><text text-anchor="middle" pointer-events="none" font-size="8px" fill="#000000" x="70.5292972200527" y="3" transform="rotate(180 70.5292972200527 0)" font-family="Helvetica Neue, Helvetica, Arial, sans-serif">FROM</text></g><g class="relationship" transform="translate(-38.46153646754448 240.6594730608252) rotate(282.9669039223745)"><path class="b-outline" fill="#A5ABB6" stroke="none" d="M 25 0.5 L 82.35401472397058 0.5 L 82.35401472397058 -0.5 L 25 -0.5 Z M 147.47901472397058 0.5 L 204.83302944794116 0.5 L 204.83302944794116 3.5 L 211.83302944794116 0 L 204.83302944794116 -3.5 L 204.83302944794116 -0.5 L 147.47901472397058 -0.5 Z"/><text text-anchor="middle" pointer-events="none" font-size="8px" fill="#000000" x="114.91651472397058" y="3" font-family="Helvetica Neue, Helvetica, Arial, sans-serif">IDENTIFIES_AS</text></g><g class="relationship" transform="translate(-38.46153646754448 240.6594730608252) rotate(444.34745249312186)"><path class="b-outline" fill="#A5ABB6" stroke="none" d="M 25 0.5 L 75.60119883001202 0.5 L 75.60119883001202 -0.5 L 25 -0.5 Z M 105.15198008001202 0.5 L 155.75317891002405 0.5 L 155.75317891002405 3.5 L 162.75317891002405 0 L 155.75317891002405 -3.5 L 155.75317891002405 -0.5 L 105.15198008001202 -0.5 Z"/><text text-anchor="middle" pointer-events="none" font-size="8px" fill="#000000" x="90.37658945501202" y="3" font-family="Helvetica Neue, Helvetica, Arial, sans-serif">FROM</text></g><g class="relationship" transform="translate(167.986980257811 132.92891512804792) rotate(218.7550306097986)"><path class="b-outline" fill="#A5ABB6" stroke="none" d="M 25 0.5 L 62.232049135595176 0.5 L 62.232049135595176 -0.5 L 25 -0.5 Z M 127.35704913559518 0.5 L 164.58909827119035 0.5 L 164.58909827119035 3.5 L 171.58909827119035 0 L 164.58909827119035 -3.5 L 164.58909827119035 -0.5 L 127.35704913559518 -0.5 Z"/><text text-anchor="middle" pointer-events="none" font-size="8px" fill="#000000" x="94.79454913559518" y="3" transform="rotate(180 94.79454913559518 0)" font-family="Helvetica Neue, Helvetica, Arial, sans-serif">IDENTIFIES_AS</text></g><g class="relationship" transform="translate(167.986980257811 132.92891512804792) rotate(417.78798536640977)"><path class="b-outline" fill="#A5ABB6" stroke="none" d="M 25 0.5 L 78.57478335993281 0.5 L 78.57478335993281 -0.5 L 25 -0.5 Z M 108.12556460993281 0.5 L 161.70034796986562 0.5 L 161.70034796986562 3.5 L 168.70034796986562 0 L 161.70034796986562 -3.5 L 161.70034796986562 -0.5 L 108.12556460993281 -0.5 Z"/><text text-anchor="middle" pointer-events="none" font-size="8px" fill="#000000" x="93.35017398493281" y="3" font-family="Helvetica Neue, Helvetica, Arial, sans-serif">FROM</text></g><g class="relationship" transform="translate(273.15096237100954 146.48030028822137) rotate(207.85873903253793)"><path class="b-outline" fill="#A5ABB6" stroke="none" d="M 25 0.5 L 110.11399044127242 0.5 L 110.11399044127242 -0.5 L 25 -0.5 Z M 175.23899044127242 0.5 L 260.35298088254484 0.5 L 260.35298088254484 3.5 L 267.35298088254484 0 L 260.35298088254484 -3.5 L 260.35298088254484 -0.5 L 175.23899044127242 -0.5 Z"/><text text-anchor="middle" pointer-events="none" font-size="8px" fill="#000000" x="142.67649044127242" y="3" transform="rotate(180 142.67649044127242 0)" font-family="Helvetica Neue, Helvetica, Arial, sans-serif">IDENTIFIES_AS</text></g><g class="relationship" transform="translate(273.15096237100954 146.48030028822137) rotate(338.8234585802436)"><path class="b-outline" fill="#A5ABB6" stroke="none" d="M 25 0.5 L 66.20808444113527 0.5 L 66.20808444113527 -0.5 L 25 -0.5 Z M 95.75886569113527 0.5 L 136.96695013227054 0.5 L 136.96695013227054 3.5 L 143.96695013227054 0 L 136.96695013227054 -3.5 L 136.96695013227054 -0.5 L 95.75886569113527 -0.5 Z"/><text text-anchor="middle" pointer-events="none" font-size="8px" fill="#000000" x="80.98347506613527" y="3" font-family="Helvetica Neue, Helvetica, Arial, sans-serif">FROM</text></g><g class="relationship" transform="translate(328.44837625186847 -41.99815067592778) rotate(530.6142155945314)"><path class="b-outline" fill="#A5ABB6" stroke="none" d="M 25 0.5 L 122.9499440458296 0.5 L 122.9499440458296 -0.5 L 25 -0.5 Z M 188.0749440458296 0.5 L 286.0248880916592 0.5 L 286.0248880916592 3.5 L 293.0248880916592 0 L 286.0248880916592 -3.5 L 286.0248880916592 -0.5 L 188.0749440458296 -0.5 Z"/><text text-anchor="middle" pointer-events="none" font-size="8px" fill="#000000" x="155.5124440458296" y="3" transform="rotate(180 155.5124440458296 0)" font-family="Helvetica Neue, Helvetica, Arial, sans-serif">IDENTIFIES_AS</text></g><g class="relationship" transform="translate(328.44837625186847 -41.99815067592778) rotate(348.99121609071153)"><path class="b-outline" fill="#A5ABB6" stroke="none" d="M 25 0.5 L 66.1301396179273 0.5 L 66.1301396179273 -0.5 L 25 -0.5 Z M 95.6809208679273 0.5 L 136.8110604858546 0.5 L 136.8110604858546 3.5 L 143.8110604858546 0 L 136.8110604858546 -3.5 L 136.8110604858546 -0.5 L 95.6809208679273 -0.5 Z"/><text text-anchor="middle" pointer-events="none" font-size="8px" fill="#000000" x="80.9055302429273" y="3" font-family="Helvetica Neue, Helvetica, Arial, sans-serif">FROM</text></g><g class="relationship" transform="translate(209.98841963708148 219.9568188824037) rotate(227.08848052925617)"><path class="b-outline" fill="#A5ABB6" stroke="none" d="M 25 0.5 L 107.36279206816394 0.5 L 107.36279206816394 -0.5 L 25 -0.5 Z M 172.48779206816394 0.5 L 254.85058413632788 0.5 L 254.85058413632788 3.5 L 261.8505841363279 0 L 254.85058413632788 -3.5 L 254.85058413632788 -0.5 L 172.48779206816394 -0.5 Z"/><text text-anchor="middle" pointer-events="none" font-size="8px" fill="#000000" x="139.92529206816394" y="3" transform="rotate(180 139.92529206816394 0)" font-family="Helvetica Neue, Helvetica, Arial, sans-serif">IDENTIFIES_AS</text></g><g class="relationship" transform="translate(209.98841963708148 219.9568188824037) rotate(391.5032607553375)"><path class="b-outline" fill="#A5ABB6" stroke="none" d="M 25 0.5 L 74.6011215637323 0.5 L 74.6011215637323 -0.5 L 25 -0.5 Z M 104.1519028137323 0.5 L 153.7530243774646 0.5 L 153.7530243774646 3.5 L 160.7530243774646 0 L 153.7530243774646 -3.5 L 153.7530243774646 -0.5 L 104.1519028137323 -0.5 Z"/><text text-anchor="middle" pointer-events="none" font-size="8px" fill="#000000" x="89.3765121887323" y="3" font-family="Helvetica Neue, Helvetica, Arial, sans-serif">FROM</text></g><g class="relationship" transform="translate(53.66097730726393 -215.90632961075895) rotate(459.7956566628112)"><path class="b-outline" fill="#A5ABB6" stroke="none" d="M 25 0.5 L 78.49366385271139 0.5 L 78.49366385271139 -0.5 L 25 -0.5 Z M 143.6186638527114 0.5 L 197.11232770542279 0.5 L 197.11232770542279 3.5 L 204.11232770542279 0 L 197.11232770542279 -3.5 L 197.11232770542279 -0.5 L 143.6186638527114 -0.5 Z"/><text text-anchor="middle" pointer-events="none" font-size="8px" fill="#000000" x="111.05616385271139" y="3" transform="rotate(180 111.05616385271139 0)" font-family="Helvetica Neue, Helvetica, Arial, sans-serif">IDENTIFIES_AS</text></g><g class="relationship" transform="translate(53.66097730726393 -215.90632961075895) rotate(288.48197370668163)"><path class="b-outline" fill="#A5ABB6" stroke="none" d="M 25 0.5 L 71.5043557869552 0.5 L 71.5043557869552 -0.5 L 25 -0.5 Z M 101.0551370369552 0.5 L 147.5594928239104 0.5 L 147.5594928239104 3.5 L 154.5594928239104 0 L 147.5594928239104 -3.5 L 147.5594928239104 -0.5 L 101.0551370369552 -0.5 Z"/><text text-anchor="middle" pointer-events="none" font-size="8px" fill="#000000" x="86.2797464119552" y="3" font-family="Helvetica Neue, Helvetica, Arial, sans-serif">FROM</text></g><g class="relationship" transform="translate(-191.07381545494812 -61.766509042254306) rotate(379.19523793009995)"><path class="b-outline" fill="#A5ABB6" stroke="none" d="M 25 0.5 L 72.87121806860956 0.5 L 72.87121806860956 -0.5 L 25 -0.5 Z M 137.99621806860955 0.5 L 185.86743613721913 0.5 L 185.86743613721913 3.5 L 192.86743613721913 0 L 185.86743613721913 -3.5 L 185.86743613721913 -0.5 L 137.99621806860955 -0.5 Z"/><text text-anchor="middle" pointer-events="none" font-size="8px" fill="#000000" x="105.43371806860956" y="3" font-family="Helvetica Neue, Helvetica, Arial, sans-serif">IDENTIFIES_AS</text></g><g class="relationship" transform="translate(-191.07381545494812 -61.766509042254306) rotate(480.7334528922411)"><path class="b-outline" fill="#A5ABB6" stroke="none" d="M 25 0.5 L 75.07062101942714 0.5 L 75.07062101942714 -0.5 L 25 -0.5 Z M 104.62140226942714 0.5 L 154.69202328885427 0.5 L 154.69202328885427 3.5 L 161.69202328885427 0 L 154.69202328885427 -3.5 L 154.69202328885427 -0.5 L 104.62140226942714 -0.5 Z"/><text text-anchor="middle" pointer-events="none" font-size="8px" fill="#000000" x="89.84601164442714" y="3" transform="rotate(180 89.84601164442714 0)" font-family="Helvetica Neue, Helvetica, Arial, sans-serif">FROM</text></g><g class="relationship" transform="translate(220.6949048918004 -192.8992758586618) rotate(495.4553679566277)"><path class="b-outline" fill="#A5ABB6" stroke="none" d="M 25 0.5 L 108.46723306253082 0.5 L 108.46723306253082 -0.5 L 25 -0.5 Z M 173.59223306253082 0.5 L 257.05946612506165 0.5 L 257.05946612506165 3.5 L 264.05946612506165 0 L 257.05946612506165 -3.5 L 257.05946612506165 -0.5 L 173.59223306253082 -0.5 Z"/><text text-anchor="middle" pointer-events="none" font-size="8px" fill="#000000" x="141.02973306253082" y="3" transform="rotate(180 141.02973306253082 0)" font-family="Helvetica Neue, Helvetica, Arial, sans-serif">IDENTIFIES_AS</text></g><g class="relationship" transform="translate(220.6949048918004 -192.8992758586618) rotate(315.46654916186327)"><path class="b-outline" fill="#A5ABB6" stroke="none" d="M 25 0.5 L 47.245761785887396 0.5 L 47.245761785887396 -0.5 L 25 -0.5 Z M 76.7965430358874 0.5 L 99.04230482177479 0.5 L 99.04230482177479 3.5 L 106.04230482177479 0 L 99.04230482177479 -3.5 L 99.04230482177479 -0.5 L 76.7965430358874 -0.5 Z"/><text text-anchor="middle" pointer-events="none" font-size="8px" fill="#000000" x="62.021152410887396" y="3" font-family="Helvetica Neue, Helvetica, Arial, sans-serif">FROM</text></g><g class="relationship" transform="translate(-194.2310950494586 128.99334450649224) rotate(330.30698086389924)"><path class="b-outline" fill="#A5ABB6" stroke="none" d="M 25 0.5 L 84.18272081236813 0.5 L 84.18272081236813 -0.5 L 25 -0.5 Z M 149.30772081236813 0.5 L 208.49044162473626 0.5 L 208.49044162473626 3.5 L 215.49044162473626 0 L 208.49044162473626 -3.5 L 208.49044162473626 -0.5 L 149.30772081236813 -0.5 Z"/><text text-anchor="middle" pointer-events="none" font-size="8px" fill="#000000" x="116.74522081236813" y="3" font-family="Helvetica Neue, Helvetica, Arial, sans-serif">IDENTIFIES_AS</text></g><g class="relationship" transform="translate(-194.2310950494586 128.99334450649224) rotate(198.17616289343755)"><path class="b-outline" fill="#A5ABB6" stroke="none" d="M 25 0.5 L 30.27241221746369 0.5 L 30.27241221746369 -0.5 L 25 -0.5 Z M 59.82319346746369 0.5 L 65.09560568492738 0.5 L 65.09560568492738 3.5 L 72.09560568492738 0 L 65.09560568492738 -3.5 L 65.09560568492738 -0.5 L 59.82319346746369 -0.5 Z"/><text text-anchor="middle" pointer-events="none" font-size="8px" fill="#000000" x="45.04780284246369" y="3" transform="rotate(180 45.04780284246369 0)" font-family="Helvetica Neue, Helvetica, Arial, sans-serif">FROM</text></g><g class="relationship" transform="translate(233.59284966146498 59.897913994688295) rotate(192.8738066067438)"><path class="b-outline" fill="#A5ABB6" stroke="none" d="M 25 0.5 L 76.2157471808746 0.5 L 76.2157471808746 -0.5 L 25 -0.5 Z M 141.3407471808746 0.5 L 192.5564943617492 0.5 L 192.5564943617492 3.5 L 199.5564943617492 0 L 192.5564943617492 -3.5 L 192.5564943617492 -0.5 L 141.3407471808746 -0.5 Z"/><text text-anchor="middle" pointer-events="none" font-size="8px" fill="#000000" x="108.7782471808746" y="3" transform="rotate(180 108.7782471808746 0)" font-family="Helvetica Neue, Helvetica, Arial, sans-serif">IDENTIFIES_AS</text></g><g class="relationship" transform="translate(233.59284966146498 59.897913994688295) rotate(367.383853708464)"><path class="b-outline" fill="#A5ABB6" stroke="none" d="M 25 0.5 L 81.10625273354718 0.5 L 81.10625273354718 -0.5 L 25 -0.5 Z M 110.65703398354718 0.5 L 166.76328671709436 0.5 L 166.76328671709436 3.5 L 173.76328671709436 0 L 166.76328671709436 -3.5 L 166.76328671709436 -0.5 L 110.65703398354718 -0.5 Z"/><text text-anchor="middle" pointer-events="none" font-size="8px" fill="#000000" x="95.88164335854718" y="3" font-family="Helvetica Neue, Helvetica, Arial, sans-serif">FROM</text></g><g class="relationship" transform="translate(118.60238659441897 -58.21161163663384) rotate(506.77179651559044)"><path class="b-outline" fill="#A5ABB6" stroke="none" d="M 25 0.5 L 26.054684942396264 0.5 L 26.054684942396264 -0.5 L 25 -0.5 Z M 91.17968494239626 0.5 L 92.23436988479253 0.5 L 92.23436988479253 3.5 L 99.23436988479253 0 L 92.23436988479253 -3.5 L 92.23436988479253 -0.5 L 91.17968494239626 -0.5 Z"/><text text-anchor="middle" pointer-events="none" font-size="8px" fill="#000000" x="58.617184942396264" y="3" transform="rotate(180 58.617184942396264 0)" font-family="Helvetica Neue, Helvetica, Arial, sans-serif">IDENTIFIES_AS</text></g><g class="relationship" transform="translate(-274.94903943828143 -8.962145402745358) rotate(363.7193714691033)"><path class="b-outline" fill="#A5ABB6" stroke="none" d="M 25 0.5 L 109.05817985588823 0.5 L 109.05817985588823 -0.5 L 25 -0.5 Z M 174.18317985588823 0.5 L 258.24135971177645 0.5 L 258.24135971177645 3.5 L 265.24135971177645 0 L 258.24135971177645 -3.5 L 258.24135971177645 -0.5 L 174.18317985588823 -0.5 Z"/><text text-anchor="middle" pointer-events="none" font-size="8px" fill="#000000" x="141.62067985588823" y="3" font-family="Helvetica Neue, Helvetica, Arial, sans-serif">IDENTIFIES_AS</text></g><g class="relationship" transform="translate(-274.94903943828143 -8.962145402745358) rotate(456.11390975860445)"><path class="b-outline" fill="#A5ABB6" stroke="none" d="M 25 0.5 L 35.86632050281075 0.5 L 35.86632050281075 -0.5 L 25 -0.5 Z M 65.41710175281075 0.5 L 76.2834222556215 0.5 L 76.2834222556215 3.5 L 83.2834222556215 0 L 76.2834222556215 -3.5 L 76.2834222556215 -0.5 L 65.41710175281075 -0.5 Z"/><text text-anchor="middle" pointer-events="none" font-size="8px" fill="#000000" x="50.64171112781075" y="3" transform="rotate(180 50.64171112781075 0)" font-family="Helvetica Neue, Helvetica, Arial, sans-serif">FROM</text></g><g class="relationship" transform="translate(131.82231022643978 -156.44083782827482) rotate(485.1597082872545)"><path class="b-outline" fill="#A5ABB6" stroke="none" d="M 25 0.5 L 65.64782327218764 0.5 L 65.64782327218764 -0.5 L 25 -0.5 Z M 130.77282327218762 0.5 L 171.42064654437527 0.5 L 171.42064654437527 3.5 L 178.42064654437527 0 L 171.42064654437527 -3.5 L 171.42064654437527 -0.5 L 130.77282327218762 -0.5 Z"/><text text-anchor="middle" pointer-events="none" font-size="8px" fill="#000000" x="98.21032327218764" y="3" transform="rotate(180 98.21032327218764 0)" font-family="Helvetica Neue, Helvetica, Arial, sans-serif">IDENTIFIES_AS</text></g><g class="relationship" transform="translate(131.82231022643978 -156.44083782827482) rotate(324.84748622994084)"><path class="b-outline" fill="#A5ABB6" stroke="none" d="M 25 0.5 L 93.19718321130415 0.5 L 93.19718321130415 -0.5 L 25 -0.5 Z M 122.74796446130415 0.5 L 190.9451476726083 0.5 L 190.9451476726083 3.5 L 197.9451476726083 0 L 190.9451476726083 -3.5 L 190.9451476726083 -0.5 L 122.74796446130415 -0.5 Z"/><text text-anchor="middle" pointer-events="none" font-size="8px" fill="#000000" x="107.97257383630415" y="3" font-family="Helvetica Neue, Helvetica, Arial, sans-serif">FROM</text></g><g class="relationship" transform="translate(143.2003559751044 -252.11884053101227) rotate(476.1307588923656)"><path class="b-outline" fill="#A5ABB6" stroke="none" d="M 25 0.5 L 109.84255235330923 0.5 L 109.84255235330923 -0.5 L 25 -0.5 Z M 174.96755235330923 0.5 L 259.81010470661846 0.5 L 259.81010470661846 3.5 L 266.81010470661846 0 L 259.81010470661846 -3.5 L 259.81010470661846 -0.5 L 174.96755235330923 -0.5 Z"/><text text-anchor="middle" pointer-events="none" font-size="8px" fill="#000000" x="142.40505235330923" y="3" transform="rotate(180 142.40505235330923 0)" font-family="Helvetica Neue, Helvetica, Arial, sans-serif">IDENTIFIES_AS</text></g><g class="relationship" transform="translate(143.2003559751044 -252.11884053101227) rotate(349.1736327209097)"><path class="b-outline" fill="#A5ABB6" stroke="none" d="M 25 0.5 L 68.726611412572 0.5 L 68.726611412572 -0.5 L 25 -0.5 Z M 98.277392662572 0.5 L 142.004004075144 0.5 L 142.004004075144 3.5 L 149.004004075144 0 L 142.004004075144 -3.5 L 142.004004075144 -0.5 L 98.277392662572 -0.5 Z"/><text text-anchor="middle" pointer-events="none" font-size="8px" fill="#000000" x="83.502002037572" y="3" font-family="Helvetica Neue, Helvetica, Arial, sans-serif">FROM</text></g><g class="relationship" transform="translate(39.37666356119197 -118.12652393276316) rotate(460.92082286355514)"><path class="b-outline" fill="#A5ABB6" stroke="none" d="M 25 0.5 L 29.113974431608185 0.5 L 29.113974431608185 -0.5 L 25 -0.5 Z M 94.23897443160818 0.5 L 98.35294886321637 0.5 L 98.35294886321637 3.5 L 105.35294886321637 0 L 98.35294886321637 -3.5 L 98.35294886321637 -0.5 L 94.23897443160818 -0.5 Z"/><text text-anchor="middle" pointer-events="none" font-size="8px" fill="#000000" x="61.676474431608185" y="3" transform="rotate(180 61.676474431608185 0)" font-family="Helvetica Neue, Helvetica, Arial, sans-serif">IDENTIFIES_AS</text></g><g class="relationship" transform="translate(-188.38549260463483 32.211072828103525) rotate(353.7204613508468)"><path class="b-outline" fill="#A5ABB6" stroke="none" d="M 25 0.5 L 66.08361350231846 0.5 L 66.08361350231846 -0.5 L 25 -0.5 Z M 131.20861350231846 0.5 L 172.2922270046369 0.5 L 172.2922270046369 3.5 L 179.2922270046369 0 L 172.2922270046369 -3.5 L 172.2922270046369 -0.5 L 131.20861350231846 -0.5 Z"/><text text-anchor="middle" pointer-events="none" font-size="8px" fill="#000000" x="98.64611350231846" y="3" font-family="Helvetica Neue, Helvetica, Arial, sans-serif">IDENTIFIES_AS</text></g><g class="relationship" transform="translate(-188.38549260463483 32.211072828103525) rotate(505.8687344076694)"><path class="b-outline" fill="#A5ABB6" stroke="none" d="M 25 0.5 L 40.97910415103021 0.5 L 40.97910415103021 -0.5 L 25 -0.5 Z M 70.52988540103021 0.5 L 86.50898955206041 0.5 L 86.50898955206041 3.5 L 93.50898955206041 0 L 86.50898955206041 -3.5 L 86.50898955206041 -0.5 L 70.52988540103021 -0.5 Z"/><text text-anchor="middle" pointer-events="none" font-size="8px" fill="#000000" x="55.75449477603021" y="3" transform="rotate(180 55.75449477603021 0)" font-family="Helvetica Neue, Helvetica, Arial, sans-serif">FROM</text></g><g class="relationship" transform="translate(-35.545985550202325 -178.7986456400903) rotate(435.0922645134524)"><path class="b-outline" fill="#A5ABB6" stroke="none" d="M 25 0.5 L 61.55536968097576 0.5 L 61.55536968097576 -0.5 L 25 -0.5 Z M 126.68036968097576 0.5 L 163.23573936195152 0.5 L 163.23573936195152 3.5 L 170.23573936195152 0 L 163.23573936195152 -3.5 L 163.23573936195152 -0.5 L 126.68036968097576 -0.5 Z"/><text text-anchor="middle" pointer-events="none" font-size="8px" fill="#000000" x="94.11786968097576" y="3" font-family="Helvetica Neue, Helvetica, Arial, sans-serif">IDENTIFIES_AS</text></g><g class="relationship" transform="translate(-35.545985550202325 -178.7986456400903) rotate(252.90280053000038)"><path class="b-outline" fill="#A5ABB6" stroke="none" d="M 25 0.5 L 72.16098358097129 0.5 L 72.16098358097129 -0.5 L 25 -0.5 Z M 101.71176483097129 0.5 L 148.87274841194258 0.5 L 148.87274841194258 3.5 L 155.87274841194258 0 L 148.87274841194258 -3.5 L 148.87274841194258 -0.5 L 101.71176483097129 -0.5 Z"/><text text-anchor="middle" pointer-events="none" font-size="8px" fill="#000000" x="86.93637420597129" y="3" transform="rotate(180 86.93637420597129 0)" font-family="Helvetica Neue, Helvetica, Arial, sans-serif">FROM</text></g><g class="relationship" transform="translate(-25.48688188710433 -274.6302926819995) rotate(441.96355161174904)"><path class="b-outline" fill="#A5ABB6" stroke="none" d="M 25 0.5 L 107.59633338272806 0.5 L 107.59633338272806 -0.5 L 25 -0.5 Z M 172.72133338272806 0.5 L 255.31766676545612 0.5 L 255.31766676545612 3.5 L 262.3176667654561 0 L 255.31766676545612 -3.5 L 255.31766676545612 -0.5 L 172.72133338272806 -0.5 Z"/><text text-anchor="middle" pointer-events="none" font-size="8px" fill="#000000" x="140.15883338272806" y="3" font-family="Helvetica Neue, Helvetica, Arial, sans-serif">IDENTIFIES_AS</text></g><g class="relationship" transform="translate(-25.48688188710433 -274.6302926819995) rotate(266.937256747719)"><path class="b-outline" fill="#A5ABB6" stroke="none" d="M 25 0.5 L 69.84121711346921 0.5 L 69.84121711346921 -0.5 L 25 -0.5 Z M 99.39199836346921 0.5 L 144.23321547693843 0.5 L 144.23321547693843 3.5 L 151.23321547693843 0 L 144.23321547693843 -3.5 L 144.23321547693843 -0.5 L 99.39199836346921 -0.5 Z"/><text text-anchor="middle" pointer-events="none" font-size="8px" fill="#000000" x="84.61660773846921" y="3" transform="rotate(180 84.61660773846921 0)" font-family="Helvetica Neue, Helvetica, Arial, sans-serif">FROM</text></g><g class="relationship" transform="translate(-121.75204825931897 -225.6128771480008) rotate(419.91259050551247)"><path class="b-outline" fill="#A5ABB6" stroke="none" d="M 25 0.5 L 100.0111447842475 0.5 L 100.0111447842475 -0.5 L 25 -0.5 Z M 165.1361447842475 0.5 L 240.147289568495 0.5 L 240.147289568495 3.5 L 247.147289568495 0 L 240.147289568495 -3.5 L 240.147289568495 -0.5 L 165.1361447842475 -0.5 Z"/><text text-anchor="middle" pointer-events="none" font-size="8px" fill="#000000" x="132.5736447842475" y="3" font-family="Helvetica Neue, Helvetica, Arial, sans-serif">IDENTIFIES_AS</text></g><g class="relationship" transform="translate(-121.75204825931897 -225.6128771480008) rotate(233.7045197323373)"><path class="b-outline" fill="#A5ABB6" stroke="none" d="M 25 0.5 L 70.0244302192118 0.5 L 70.0244302192118 -0.5 L 25 -0.5 Z M 99.5752114692118 0.5 L 144.5996416884236 0.5 L 144.5996416884236 3.5 L 151.5996416884236 0 L 144.5996416884236 -3.5 L 144.5996416884236 -0.5 L 99.5752114692118 -0.5 Z"/><text text-anchor="middle" pointer-events="none" font-size="8px" fill="#000000" x="84.7998208442118" y="3" transform="rotate(180 84.7998208442118 0)" font-family="Helvetica Neue, Helvetica, Arial, sans-serif">FROM</text></g><g class="relationship" transform="translate(-110.1544807138694 -114.48715410008447) rotate(404.88903594437596)"><path class="b-outline" fill="#A5ABB6" stroke="none" d="M 25 0.5 L 52.03905321640222 0.5 L 52.03905321640222 -0.5 L 25 -0.5 Z M 117.16405321640222 0.5 L 144.20310643280445 0.5 L 144.20310643280445 3.5 L 151.20310643280445 0 L 144.20310643280445 -3.5 L 144.20310643280445 -0.5 L 117.16405321640222 -0.5 Z"/><text text-anchor="middle" pointer-events="none" font-size="8px" fill="#000000" x="84.60155321640222" y="3" font-family="Helvetica Neue, Helvetica, Arial, sans-serif">IDENTIFIES_AS</text></g><g class="relationship" transform="translate(-110.1544807138694 -114.48715410008447) rotate(220.94384718354428)"><path class="b-outline" fill="#A5ABB6" stroke="none" d="M 25 0.5 L 77.59485490785212 0.5 L 77.59485490785212 -0.5 L 25 -0.5 Z M 107.14563615785212 0.5 L 159.74049106570425 0.5 L 159.74049106570425 3.5 L 166.74049106570425 0 L 159.74049106570425 -3.5 L 159.74049106570425 -0.5 L 107.14563615785212 -0.5 Z"/><text text-anchor="middle" pointer-events="none" font-size="8px" fill="#000000" x="92.37024553285212" y="3" transform="rotate(180 92.37024553285212 0)" font-family="Helvetica Neue, Helvetica, Arial, sans-serif">FROM</text></g><g class="relationship" transform="translate(297.3001932851704 -133.01178663247674) rotate(513.1812215659128)"><path class="b-outline" fill="#A5ABB6" stroke="none" d="M 25 0.5 L 122.27858178076923 0.5 L 122.27858178076923 -0.5 L 25 -0.5 Z M 187.40358178076923 0.5 L 284.68216356153846 0.5 L 284.68216356153846 3.5 L 291.68216356153846 0 L 284.68216356153846 -3.5 L 284.68216356153846 -0.5 L 187.40358178076923 -0.5 Z"/><text text-anchor="middle" pointer-events="none" font-size="8px" fill="#000000" x="154.84108178076923" y="3" transform="rotate(180 154.84108178076923 0)" font-family="Helvetica Neue, Helvetica, Arial, sans-serif">IDENTIFIES_AS</text></g><g class="relationship" transform="translate(297.3001932851704 -133.01178663247674) rotate(276.3183446083226)"><path class="b-outline" fill="#A5ABB6" stroke="none" d="M 25 0.5 L 58.083836359084856 0.5 L 58.083836359084856 -0.5 L 25 -0.5 Z M 87.63461760908486 0.5 L 120.71845396816971 0.5 L 120.71845396816971 3.5 L 127.71845396816971 0 L 120.71845396816971 -3.5 L 120.71845396816971 -0.5 L 87.63461760908486 -0.5 Z"/><text text-anchor="middle" pointer-events="none" font-size="8px" fill="#000000" x="72.85922698408486" y="3" font-family="Helvetica Neue, Helvetica, Arial, sans-serif">FROM</text></g><g class="relationship" transform="translate(139.17942575801672 38.99752953211396) rotate(193.16988149696954)"><path class="b-outline" fill="#A5ABB6" stroke="none" d="M 25 0.5 L 27.868167121558564 0.5 L 27.868167121558564 -0.5 L 25 -0.5 Z M 92.99316712155857 0.5 L 95.86133424311713 0.5 L 95.86133424311713 3.5 L 102.86133424311713 0 L 95.86133424311713 -3.5 L 95.86133424311713 -0.5 L 92.99316712155857 -0.5 Z"/><text text-anchor="middle" pointer-events="none" font-size="8px" fill="#000000" x="60.430667121558564" y="3" transform="rotate(180 60.430667121558564 0)" font-family="Helvetica Neue, Helvetica, Arial, sans-serif">IDENTIFIES_AS</text></g><g class="relationship" transform="translate(-104.31516853991914 83.89329362923449) rotate(328.1142375222008)"><path class="b-outline" fill="#A5ABB6" stroke="none" d="M 25 0.5 L 34.00919307437202 0.5 L 34.00919307437202 -0.5 L 25 -0.5 Z M 99.13419307437202 0.5 L 108.14338614874404 0.5 L 108.14338614874404 3.5 L 115.14338614874404 0 L 108.14338614874404 -3.5 L 108.14338614874404 -0.5 L 99.13419307437202 -0.5 Z"/><text text-anchor="middle" pointer-events="none" font-size="8px" fill="#000000" x="66.57169307437202" y="3" font-family="Helvetica Neue, Helvetica, Arial, sans-serif">IDENTIFIES_AS</text></g><g class="relationship" transform="translate(-104.31516853991914 83.89329362923449) rotate(535.3514721099107)"><path class="b-outline" fill="#A5ABB6" stroke="none" d="M 25 0.5 L 73.10853168254003 0.5 L 73.10853168254003 -0.5 L 25 -0.5 Z M 102.65931293254003 0.5 L 150.76784461508007 0.5 L 150.76784461508007 3.5 L 157.76784461508007 0 L 150.76784461508007 -3.5 L 150.76784461508007 -0.5 L 102.65931293254003 -0.5 Z"/><text text-anchor="middle" pointer-events="none" font-size="8px" fill="#000000" x="87.88392230754003" y="3" transform="rotate(180 87.88392230754003 0)" font-family="Helvetica Neue, Helvetica, Arial, sans-serif">FROM</text></g><g class="relationship" transform="translate(-196.01147815258307 -160.31724528575685) rotate(398.928905727662)"><path class="b-outline" fill="#A5ABB6" stroke="none" d="M 25 0.5 L 99.3568136672067 0.5 L 99.3568136672067 -0.5 L 25 -0.5 Z M 164.4818136672067 0.5 L 238.8386273344134 0.5 L 238.8386273344134 3.5 L 245.8386273344134 0 L 238.8386273344134 -3.5 L 238.8386273344134 -0.5 L 164.4818136672067 -0.5 Z"/><text text-anchor="middle" pointer-events="none" font-size="8px" fill="#000000" x="131.9193136672067" y="3" font-family="Helvetica Neue, Helvetica, Arial, sans-serif">IDENTIFIES_AS</text></g><g class="relationship" transform="translate(-196.01147815258307 -160.31724528575685) rotate(191.85677177913408)"><path class="b-outline" fill="#A5ABB6" stroke="none" d="M 25 0.5 L 90.11285051339007 0.5 L 90.11285051339007 -0.5 L 25 -0.5 Z M 119.66363176339007 0.5 L 184.77648227678014 0.5 L 184.77648227678014 3.5 L 191.77648227678014 0 L 184.77648227678014 -3.5 L 184.77648227678014 -0.5 L 119.66363176339007 -0.5 Z"/><text text-anchor="middle" pointer-events="none" font-size="8px" fill="#000000" x="104.88824113839007" y="3" transform="rotate(180 104.88824113839007 0)" font-family="Helvetica Neue, Helvetica, Arial, sans-serif">FROM</text></g><g class="relationship" transform="translate(-114.26077189276344 181.67989166157815) rotate(306.88721160636715)"><path class="b-outline" fill="#A5ABB6" stroke="none" d="M 25 0.5 L 71.34570304217455 0.5 L 71.34570304217455 -0.5 L 25 -0.5 Z M 136.47070304217453 0.5 L 182.8164060843491 0.5 L 182.8164060843491 3.5 L 189.8164060843491 0 L 182.8164060843491 -3.5 L 182.8164060843491 -0.5 L 136.47070304217453 -0.5 Z"/><text text-anchor="middle" pointer-events="none" font-size="8px" fill="#000000" x="103.90820304217455" y="3" font-family="Helvetica Neue, Helvetica, Arial, sans-serif">IDENTIFIES_AS</text></g><g class="relationship" transform="translate(-114.26077189276344 181.67989166157815) rotate(205.72434038214135)"><path class="b-outline" fill="#A5ABB6" stroke="none" d="M 25 0.5 L 77.30815737036674 0.5 L 77.30815737036674 -0.5 L 25 -0.5 Z M 106.85893862036674 0.5 L 159.1670959907335 0.5 L 159.1670959907335 3.5 L 166.1670959907335 0 L 159.1670959907335 -3.5 L 159.1670959907335 -0.5 L 106.85893862036674 -0.5 Z"/><text text-anchor="middle" pointer-events="none" font-size="8px" fill="#000000" x="92.08354799536674" y="3" transform="rotate(180 92.08354799536674 0)" font-family="Helvetica Neue, Helvetica, Arial, sans-serif">FROM</text></g><g class="relationship" transform="translate(-103.4221397350467 -14.842186333405673) rotate(371.8162123072607)"><path class="b-outline" fill="#A5ABB6" stroke="none" d="M 25 0.5 L 25.603429632768936 0.5 L 25.603429632768936 -0.5 L 25 -0.5 Z M 88.05655463276894 0.5 L 88.65998426553787 0.5 L 88.65998426553787 3.5 L 95.65998426553787 0 L 88.65998426553787 -3.5 L 88.65998426553787 -0.5 L 88.05655463276894 -0.5 Z"/><text text-anchor="middle" pointer-events="none" font-size="8px" fill="#000000" x="56.829992132768936" y="3" font-family="Helvetica Neue, Helvetica, Arial, sans-serif">IDENTIFIES_…</text></g><g class="relationship" transform="translate(-103.4221397350467 -14.842186333405673) rotate(508.18965766681845)"><path class="b-outline" fill="#A5ABB6" stroke="none" d="M 25 0.5 L 89.43242393504968 0.5 L 89.43242393504968 -0.5 L 25 -0.5 Z M 118.98320518504968 0.5 L 183.41562912009937 0.5 L 183.41562912009937 3.5 L 190.41562912009937 0 L 183.41562912009937 -3.5 L 183.41562912009937 -0.5 L 118.98320518504968 -0.5 Z"/><text text-anchor="middle" pointer-events="none" font-size="8px" fill="#000000" x="104.20781456004968" y="3" transform="rotate(180 104.20781456004968 0)" font-family="Helvetica Neue, Helvetica, Arial, sans-serif">FROM</text></g><g class="relationship" transform="translate(72.23184367216813 113.37380108206995) rotate(240.9257905210937)"><path class="b-outline" fill="#A5ABB6" stroke="none" d="M 25 0.5 L 26.713800842353194 0.5 L 26.713800842353194 -0.5 L 25 -0.5 Z M 84.7177070923532 0.5 L 86.43150793470639 0.5 L 86.43150793470639 3.5 L 93.43150793470639 0 L 86.43150793470639 -3.5 L 86.43150793470639 -0.5 L 84.7177070923532 -0.5 Z"/><text text-anchor="middle" pointer-events="none" font-size="8px" fill="#000000" x="55.715753967353194" y="3" transform="rotate(180 55.715753967353194 0)" font-family="Helvetica Neue, Helvetica, Arial, sans-serif">IDENTIFIES…</text></g><g class="relationship" transform="translate(32.94614440043806 304.8760312979733) rotate(266.45713497865495)"><path class="b-outline" fill="#A5ABB6" stroke="none" d="M 25 0.5 L 111.72509878727092 0.5 L 111.72509878727092 -0.5 L 25 -0.5 Z M 176.85009878727092 0.5 L 263.57519757454185 0.5 L 263.57519757454185 3.5 L 270.57519757454185 0 L 263.57519757454185 -3.5 L 263.57519757454185 -0.5 L 176.85009878727092 -0.5 Z"/><text text-anchor="middle" pointer-events="none" font-size="8px" fill="#000000" x="144.28759878727092" y="3" transform="rotate(180 144.28759878727092 0)" font-family="Helvetica Neue, Helvetica, Arial, sans-serif">IDENTIFIES_AS</text></g><g class="relationship" transform="translate(32.94614440043806 304.8760312979733) rotate(473.34126303175947)"><path class="b-outline" fill="#A5ABB6" stroke="none" d="M 25 0.5 L 48.50136781237144 0.5 L 48.50136781237144 -0.5 L 25 -0.5 Z M 78.05214906237144 0.5 L 101.55351687474288 0.5 L 101.55351687474288 3.5 L 108.55351687474288 0 L 101.55351687474288 -3.5 L 101.55351687474288 -0.5 L 78.05214906237144 -0.5 Z"/><text text-anchor="middle" pointer-events="none" font-size="8px" fill="#000000" x="63.27675843737144" y="3" transform="rotate(180 63.27675843737144 0)" font-family="Helvetica Neue, Helvetica, Arial, sans-serif">FROM</text></g><g class="relationship" transform="translate(-277.88023503008526 -106.01585353669954) rotate(381.60819218164886)"><path class="b-outline" fill="#A5ABB6" stroke="none" d="M 25 0.5 L 121.27520573132267 0.5 L 121.27520573132267 -0.5 L 25 -0.5 Z M 186.40020573132267 0.5 L 282.67541146264534 0.5 L 282.67541146264534 3.5 L 289.67541146264534 0 L 282.67541146264534 -3.5 L 282.67541146264534 -0.5 L 186.40020573132267 -0.5 Z"/><text text-anchor="middle" pointer-events="none" font-size="8px" fill="#000000" x="153.83770573132267" y="3" font-family="Helvetica Neue, Helvetica, Arial, sans-serif">IDENTIFIES_AS</text></g><g class="relationship" transform="translate(-277.88023503008526 -106.01585353669954) rotate(217.1865069956035)"><path class="b-outline" fill="#A5ABB6" stroke="none" d="M 25 0.5 L 63.49138304879256 0.5 L 63.49138304879256 -0.5 L 25 -0.5 Z M 93.04216429879256 0.5 L 131.5335473475851 0.5 L 131.5335473475851 3.5 L 138.5335473475851 0 L 131.5335473475851 -3.5 L 131.5335473475851 -0.5 L 93.04216429879256 -0.5 Z"/><text text-anchor="middle" pointer-events="none" font-size="8px" fill="#000000" x="78.26677367379256" y="3" transform="rotate(180 78.26677367379256 0)" font-family="Helvetica Neue, Helvetica, Arial, sans-serif">FROM</text></g><g class="relationship" transform="translate(127.44439711861449 272.9014549802714) rotate(246.79518966740625)"><path class="b-outline" fill="#A5ABB6" stroke="none" d="M 25 0.5 L 107.03133324840914 0.5 L 107.03133324840914 -0.5 L 25 -0.5 Z M 172.15633324840914 0.5 L 254.18766649681828 0.5 L 254.18766649681828 3.5 L 261.1876664968183 0 L 254.18766649681828 -3.5 L 254.18766649681828 -0.5 L 172.15633324840914 -0.5 Z"/><text text-anchor="middle" pointer-events="none" font-size="8px" fill="#000000" x="139.59383324840914" y="3" transform="rotate(180 139.59383324840914 0)" font-family="Helvetica Neue, Helvetica, Arial, sans-serif">IDENTIFIES_AS</text></g><g class="relationship" transform="translate(127.44439711861449 272.9014549802714) rotate(434.89704794364627)"><path class="b-outline" fill="#A5ABB6" stroke="none" d="M 25 0.5 L 68.46438507221809 0.5 L 68.46438507221809 -0.5 L 25 -0.5 Z M 98.01516632221809 0.5 L 141.47955139443619 0.5 L 141.47955139443619 3.5 L 148.47955139443619 0 L 141.47955139443619 -3.5 L 141.47955139443619 -0.5 L 98.01516632221809 -0.5 Z"/><text text-anchor="middle" pointer-events="none" font-size="8px" fill="#000000" x="83.23977569721809" y="3" font-family="Helvetica Neue, Helvetica, Arial, sans-serif">FROM</text></g><g class="relationship" transform="translate(-127.1634945588319 279.47515932361466) rotate(297.7493518254607)"><path class="b-outline" fill="#A5ABB6" stroke="none" d="M 25 0.5 L 116.26043646876309 0.5 L 116.26043646876309 -0.5 L 25 -0.5 Z M 181.3854364687631 0.5 L 272.6458729375262 0.5 L 272.6458729375262 3.5 L 279.6458729375262 0 L 272.6458729375262 -3.5 L 272.6458729375262 -0.5 L 181.3854364687631 -0.5 Z"/><text text-anchor="middle" pointer-events="none" font-size="8px" fill="#000000" x="148.8229364687631" y="3" font-family="Helvetica Neue, Helvetica, Arial, sans-serif">IDENTIFIES_AS</text></g><g class="relationship" transform="translate(-127.1634945588319 279.47515932361466) rotate(488.50831738901735)"><path class="b-outline" fill="#A5ABB6" stroke="none" d="M 25 0.5 L 67.50686608856246 0.5 L 67.50686608856246 -0.5 L 25 -0.5 Z M 97.05764733856246 0.5 L 139.56451342712492 0.5 L 139.56451342712492 3.5 L 146.56451342712492 0 L 139.56451342712492 -3.5 L 139.56451342712492 -0.5 L 97.05764733856246 -0.5 Z"/><text text-anchor="middle" pointer-events="none" font-size="8px" fill="#000000" x="82.28225671356246" y="3" transform="rotate(180 82.28225671356246 0)" font-family="Helvetica Neue, Helvetica, Arial, sans-serif">FROM</text></g><g class="relationship" transform="translate(-23.276795131730207 143.67106544981186) rotate(285.83753641251167)"><path class="b-outline" fill="#A5ABB6" stroke="none" d="M 25 0.5 L 33.48004741458854 0.5 L 33.48004741458854 -0.5 L 25 -0.5 Z M 98.60504741458854 0.5 L 107.08509482917708 0.5 L 107.08509482917708 3.5 L 114.08509482917708 0 L 107.08509482917708 -3.5 L 107.08509482917708 -0.5 L 98.60504741458854 -0.5 Z"/><text text-anchor="middle" pointer-events="none" font-size="8px" fill="#000000" x="66.04254741458854" y="3" font-family="Helvetica Neue, Helvetica, Arial, sans-serif">IDENTIFIES_AS</text></g><g class="relationship" transform="translate(209.33763676952594 -95.02078576684579) rotate(511.68295546143327)"><path class="b-outline" fill="#A5ABB6" stroke="none" d="M 25 0.5 L 74.49561484061762 0.5 L 74.49561484061762 -0.5 L 25 -0.5 Z M 139.62061484061763 0.5 L 189.11622968123524 0.5 L 189.11622968123524 3.5 L 196.11622968123524 0 L 189.11622968123524 -3.5 L 189.11622968123524 -0.5 L 139.62061484061763 -0.5 Z"/><text text-anchor="middle" pointer-events="none" font-size="8px" fill="#000000" x="107.05811484061762" y="3" transform="rotate(180 107.05811484061762 0)" font-family="Helvetica Neue, Helvetica, Arial, sans-serif">IDENTIFIES_AS</text></g><g class="relationship" transform="translate(209.33763676952594 -95.02078576684579) rotate(298.9010238202203)"><path class="b-outline" fill="#A5ABB6" stroke="none" d="M 25 0.5 L 90.11488341651454 0.5 L 90.11488341651454 -0.5 L 25 -0.5 Z M 119.66566466651454 0.5 L 184.7805480830291 0.5 L 184.7805480830291 3.5 L 191.7805480830291 0 L 184.7805480830291 -3.5 L 184.7805480830291 -0.5 L 119.66566466651454 -0.5 Z"/><text text-anchor="middle" pointer-events="none" font-size="8px" fill="#000000" x="104.89027404151454" y="3" font-family="Helvetica Neue, Helvetica, Arial, sans-serif">FROM</text></g><g class="relationship" transform="translate(52.615054993903655 210.2665269886297) rotate(259.28124835013426)"><path class="b-outline" fill="#A5ABB6" stroke="none" d="M 25 0.5 L 65.9172465733479 0.5 L 65.9172465733479 -0.5 L 25 -0.5 Z M 131.04224657334788 0.5 L 171.9594931466958 0.5 L 171.9594931466958 3.5 L 178.9594931466958 0 L 171.9594931466958 -3.5 L 171.9594931466958 -0.5 L 131.04224657334788 -0.5 Z"/><text text-anchor="middle" pointer-events="none" font-size="8px" fill="#000000" x="98.4797465733479" y="3" transform="rotate(180 98.4797465733479 0)" font-family="Helvetica Neue, Helvetica, Arial, sans-serif">IDENTIFIES_AS</text></g><g class="relationship" transform="translate(52.615054993903655 210.2665269886297) rotate(468.4759270540899)"><path class="b-outline" fill="#A5ABB6" stroke="none" d="M 25 0.5 L 96.24387495307178 0.5 L 96.24387495307178 -0.5 L 25 -0.5 Z M 125.79465620307178 0.5 L 197.03853115614356 0.5 L 197.03853115614356 3.5 L 204.03853115614356 0 L 197.03853115614356 -3.5 L 197.03853115614356 -0.5 L 125.79465620307178 -0.5 Z"/><text text-anchor="middle" pointer-events="none" font-size="8px" fill="#000000" x="111.01926557807178" y="3" transform="rotate(180 111.01926557807178 0)" font-family="Helvetica Neue, Helvetica, Arial, sans-serif">FROM</text></g></g><g class="layer nodes"><g class="node" aria-label="graph-node183" transform="translate(14.680997414883619,9.865723297006115)"><circle class="b-outline" cx="0" cy="0" r="25" fill="#C990C0" stroke="#b261a5" stroke-width="2px"/><text class="caption" text-anchor="middle" pointer-events="none" x="0" y="5" font-size="10px" fill="#FFFFFF" font-family="Helvetica Neue, Helvetica, Arial, sans-serif"> Human</text></g><g class="node" aria-label="graph-node146" transform="translate(-286.481815645435,98.7053734148857)"><circle class="b-outline" cx="0" cy="0" r="25" fill="#F79767" stroke="#f36924" stroke-width="2px"/><text class="caption" text-anchor="middle" pointer-events="none" x="0" y="5" font-size="10px" fill="#FFFFFF" font-family="Helvetica Neue, Helvetica, Arial, sans-serif"> Tatooine</text></g><g class="node" aria-label="graph-node87" transform="translate(-19.968672859237813,427.4996994211678)"><circle class="b-outline" cx="0" cy="0" r="25" fill="#F79767" stroke="#f36924" stroke-width="2px"/><text class="caption" text-anchor="middle" pointer-events="none" x="0" y="5" font-size="10px" fill="#FFFFFF" font-family="Helvetica Neue, Helvetica, Arial, sans-serif"> Alderaan</text></g><g class="node" aria-label="graph-node106" transform="translate(271.2396687433275,296.8151778963468)"><circle class="b-outline" cx="0" cy="0" r="25" fill="#F79767" stroke="#f36924" stroke-width="2px"/><text class="caption" text-anchor="middle" pointer-events="none" x="0" y="5" font-size="10px" fill="#FFFFFF" font-family="Helvetica Neue, Helvetica, Arial, sans-serif"> Eriadu</text></g><g class="node" aria-label="graph-node107" transform="translate(430.7078755986865,85.44220291315995)"><circle class="b-outline" cx="0" cy="0" r="25" fill="#F79767" stroke="#f36924" stroke-width="2px"/><text class="caption" text-anchor="middle" pointer-events="none" x="0" y="5" font-size="10px" fill="#FFFFFF" font-family="Helvetica Neue, Helvetica, Arial, sans-serif"> Corellia</text></g><g class="node" aria-label="graph-node138" transform="translate(494.1529619863874,-74.23422377595523)"><circle class="b-outline" cx="0" cy="0" r="25" fill="#F79767" stroke="#f36924" stroke-width="2px"/><text class="caption" text-anchor="middle" pointer-events="none" x="0" y="0" font-size="10px" fill="#FFFFFF" font-family="Helvetica Neue, Helvetica, Arial, sans-serif"> Concord</text><text class="caption" text-anchor="middle" pointer-events="none" x="0" y="10" font-size="10px" fill="#FFFFFF" font-family="Helvetica Neue, Helvetica, Arial, sans-serif"> Dawn</text></g><g class="node" aria-label="graph-node115" transform="translate(368.3633850868552,317.02152093293256)"><circle class="b-outline" cx="0" cy="0" r="25" fill="#F79767" stroke="#f36924" stroke-width="2px"/><text class="caption" text-anchor="middle" pointer-events="none" x="0" y="5" font-size="10px" fill="#FFFFFF" font-family="Helvetica Neue, Helvetica, Arial, sans-serif"> Socorro</text></g><g class="node" aria-label="graph-node111" transform="translate(110.5824643191493,-386.2047611347624)"><circle class="b-outline" cx="0" cy="0" r="25" fill="#F79767" stroke="#f36924" stroke-width="2px"/><text class="caption" text-anchor="middle" pointer-events="none" x="0" y="5" font-size="10px" fill="#FFFFFF" font-family="Helvetica Neue, Helvetica, Arial, sans-serif"> Bestine IV</text></g><g class="node" aria-label="graph-node93" transform="translate(314.10724792468267,-284.8025936557363)"><circle class="b-outline" cx="0" cy="0" r="25" fill="#F79767" stroke="#f36924" stroke-width="2px"/><text class="caption" text-anchor="middle" pointer-events="none" x="0" y="5" font-size="10px" fill="#FFFFFF" font-family="Helvetica Neue, Helvetica, Arial, sans-serif"> Naboo</text></g><g class="node" aria-label="graph-node127" transform="translate(-88.72141729666812,-351.6781544798219)"><circle class="b-outline" cx="0" cy="0" r="25" fill="#F79767" stroke="#f36924" stroke-width="2px"/><text class="caption" text-anchor="middle" pointer-events="none" x="0" y="0" font-size="10px" fill="#FFFFFF" font-family="Helvetica Neue, Helvetica, Arial, sans-serif"> Haruun</text><text class="caption" text-anchor="middle" pointer-events="none" x="0" y="10" font-size="10px" fill="#FFFFFF" font-family="Helvetica Neue, Helvetica, Arial, sans-serif"> Kal</text></g><g class="node" aria-label="graph-node137" transform="translate(-34.90293451142493,-450.611780885495)"><circle class="b-outline" cx="0" cy="0" r="25" fill="#F79767" stroke="#f36924" stroke-width="2px"/><text class="caption" text-anchor="middle" pointer-events="none" x="0" y="5" font-size="10px" fill="#FFFFFF" font-family="Helvetica Neue, Helvetica, Arial, sans-serif"> Serenno</text></g><g class="node" aria-label="graph-node91" transform="translate(-226.2901358597007,-367.9477698670193)"><circle class="b-outline" cx="0" cy="0" r="25" fill="#F79767" stroke="#f36924" stroke-width="2px"/><text class="caption" text-anchor="middle" pointer-events="none" x="0" y="5" font-size="10px" fill="#FFFFFF" font-family="Helvetica Neue, Helvetica, Arial, sans-serif"> Bespin</text></g><g class="node" aria-label="graph-node95" transform="translate(-254.98608042284533,-240.13835242248953)"><circle class="b-outline" cx="0" cy="0" r="25" fill="#F79767" stroke="#f36924" stroke-width="2px"/><text class="caption" text-anchor="middle" pointer-events="none" x="0" y="5" font-size="10px" fill="#FFFFFF" font-family="Helvetica Neue, Helvetica, Arial, sans-serif"> Kamino</text></g><g class="node" aria-label="graph-node94" transform="translate(-408.1628786311204,-204.85741303679302)"><circle class="b-outline" cx="0" cy="0" r="25" fill="#F79767" stroke="#f36924" stroke-width="2px"/><text class="caption" text-anchor="middle" pointer-events="none" x="0" y="5" font-size="10px" fill="#FFFFFF" font-family="Helvetica Neue, Helvetica, Arial, sans-serif"> Coruscant</text></g><g class="node" aria-label="graph-node105" transform="translate(172.6452319462926,440.3888852038431)"><circle class="b-outline" cx="0" cy="0" r="25" fill="#F79767" stroke="#f36924" stroke-width="2px"/><text class="caption" text-anchor="middle" pointer-events="none" x="0" y="5" font-size="10px" fill="#FFFFFF" font-family="Helvetica Neue, Helvetica, Arial, sans-serif"> Stewjon</text></g><g class="node" aria-label="graph-node117" transform="translate(-233.9844052634052,413.72744162723774)"><circle class="b-outline" cx="0" cy="0" r="25" fill="#F79767" stroke="#f36924" stroke-width="2px"/><text class="caption" text-anchor="middle" pointer-events="none" x="0" y="5" font-size="10px" fill="#FFFFFF" font-family="Helvetica Neue, Helvetica, Arial, sans-serif"> Chandrila</text></g><g class="node" aria-label="graph-node58" transform="translate(-206.2426358672089,223.13616307764207)"><circle class="b-outline" cx="0" cy="0" r="25" fill="#57C7E3" stroke="#23b3d7" stroke-width="2px"/><text class="caption" text-anchor="middle" pointer-events="none" x="0" y="0" font-size="10px" fill="#2A2C34" font-family="Helvetica Neue, Helvetica, Arial, sans-serif"> Cliegg</text><text class="caption" text-anchor="middle" pointer-events="none" x="0" y="10" font-size="10px" fill="#2A2C34" font-family="Helvetica Neue, Helvetica, Arial, sans-serif"> Lars</text></g><g class="node" aria-label="graph-node78" transform="translate(-38.46153646754448,240.6594730608252)"><circle class="b-outline" cx="0" cy="0" r="25" fill="#57C7E3" stroke="#23b3d7" stroke-width="2px"/><text class="caption" text-anchor="middle" pointer-events="none" x="0" y="0" font-size="10px" fill="#2A2C34" font-family="Helvetica Neue, Helvetica, Arial, sans-serif"> Raymus</text><text class="caption" text-anchor="middle" pointer-events="none" x="0" y="10" font-size="10px" fill="#2A2C34" font-family="Helvetica Neue, Helvetica, Arial, sans-serif"> Antilles</text></g><g class="node" aria-label="graph-node11" transform="translate(167.986980257811,132.92891512804792)"><circle class="b-outline" cx="0" cy="0" r="25" fill="#57C7E3" stroke="#23b3d7" stroke-width="2px"/><text class="caption" text-anchor="middle" pointer-events="none" x="0" y="0" font-size="10px" fill="#2A2C34" font-family="Helvetica Neue, Helvetica, Arial, sans-serif"> Wilhuff</text><text class="caption" text-anchor="middle" pointer-events="none" x="0" y="10" font-size="10px" fill="#2A2C34" font-family="Helvetica Neue, Helvetica, Arial, sans-serif"> Tarkin</text></g><g class="node" aria-label="graph-node13" transform="translate(273.15096237100954,146.48030028822137)"><circle class="b-outline" cx="0" cy="0" r="25" fill="#57C7E3" stroke="#23b3d7" stroke-width="2px"/><text class="caption" text-anchor="middle" pointer-events="none" x="0" y="5" font-size="10px" fill="#2A2C34" font-family="Helvetica Neue, Helvetica, Arial, sans-serif"> Han Solo</text></g><g class="node" aria-label="graph-node65" transform="translate(328.44837625186847,-41.99815067592778)"><circle class="b-outline" cx="0" cy="0" r="25" fill="#57C7E3" stroke="#23b3d7" stroke-width="2px"/><text class="caption" text-anchor="middle" pointer-events="none" x="0" y="0" font-size="10px" fill="#2A2C34" font-family="Helvetica Neue, Helvetica, Arial, sans-serif"> Jango</text><text class="caption" text-anchor="middle" pointer-events="none" x="0" y="10" font-size="10px" fill="#2A2C34" font-family="Helvetica Neue, Helvetica, Arial, sans-serif"> Fett</text></g><g class="node" aria-label="graph-node23" transform="translate(209.98841963708148,219.9568188824037)"><circle class="b-outline" cx="0" cy="0" r="25" fill="#57C7E3" stroke="#23b3d7" stroke-width="2px"/><text class="caption" text-anchor="middle" pointer-events="none" x="0" y="0" font-size="10px" fill="#2A2C34" font-family="Helvetica Neue, Helvetica, Arial, sans-serif"> Lando</text><text class="caption" text-anchor="middle" pointer-events="none" x="0" y="10" font-size="10px" fill="#2A2C34" font-family="Helvetica Neue, Helvetica, Arial, sans-serif"> Calris…</text></g><g class="node" aria-label="graph-node17" transform="translate(53.66097730726393,-215.90632961075895)"><circle class="b-outline" cx="0" cy="0" r="25" fill="#57C7E3" stroke="#23b3d7" stroke-width="2px"/><text class="caption" text-anchor="middle" pointer-events="none" x="0" y="0" font-size="10px" fill="#2A2C34" font-family="Helvetica Neue, Helvetica, Arial, sans-serif"> Jek Tono</text><text class="caption" text-anchor="middle" pointer-events="none" x="0" y="10" font-size="10px" fill="#2A2C34" font-family="Helvetica Neue, Helvetica, Arial, sans-serif"> Porkins</text></g><g class="node" aria-label="graph-node3" transform="translate(-191.07381545494812,-61.766509042254306)"><circle class="b-outline" cx="0" cy="0" r="25" fill="#57C7E3" stroke="#23b3d7" stroke-width="2px"/><text class="caption" text-anchor="middle" pointer-events="none" x="0" y="0" font-size="10px" fill="#2A2C34" font-family="Helvetica Neue, Helvetica, Arial, sans-serif"> Darth</text><text class="caption" text-anchor="middle" pointer-events="none" x="0" y="10" font-size="10px" fill="#2A2C34" font-family="Helvetica Neue, Helvetica, Arial, sans-serif"> Vader</text></g><g class="node" aria-label="graph-node62" transform="translate(220.6949048918004,-192.8992758586618)"><circle class="b-outline" cx="0" cy="0" r="25" fill="#57C7E3" stroke="#23b3d7" stroke-width="2px"/><text class="caption" text-anchor="middle" pointer-events="none" x="0" y="5" font-size="10px" fill="#2A2C34" font-family="Helvetica Neue, Helvetica, Arial, sans-serif"> Dormé</text></g><g class="node" aria-label="graph-node6" transform="translate(-194.2310950494586,128.99334450649224)"><circle class="b-outline" cx="0" cy="0" r="25" fill="#57C7E3" stroke="#23b3d7" stroke-width="2px"/><text class="caption" text-anchor="middle" pointer-events="none" x="0" y="-5" font-size="10px" fill="#2A2C34" font-family="Helvetica Neue, Helvetica, Arial, sans-serif"> Beru</text><text class="caption" text-anchor="middle" pointer-events="none" x="0" y="5" font-size="10px" fill="#2A2C34" font-family="Helvetica Neue, Helvetica, Arial, sans-serif"> Whitesun</text><text class="caption" text-anchor="middle" pointer-events="none" x="0" y="15" font-size="10px" fill="#2A2C34" font-family="Helvetica Neue, Helvetica, Arial, sans-serif"> lars</text></g><g class="node" aria-label="graph-node16" transform="translate(233.59284966146498,59.897913994688295)"><circle class="b-outline" cx="0" cy="0" r="25" fill="#57C7E3" stroke="#23b3d7" stroke-width="2px"/><text class="caption" text-anchor="middle" pointer-events="none" x="0" y="0" font-size="10px" fill="#2A2C34" font-family="Helvetica Neue, Helvetica, Arial, sans-serif"> Wedge</text><text class="caption" text-anchor="middle" pointer-events="none" x="0" y="10" font-size="10px" fill="#2A2C34" font-family="Helvetica Neue, Helvetica, Arial, sans-serif"> Antilles</text></g><g class="node" aria-label="graph-node40" transform="translate(-274.94903943828143,-8.962145402745358)"><circle class="b-outline" cx="0" cy="0" r="25" fill="#57C7E3" stroke="#23b3d7" stroke-width="2px"/><text class="caption" text-anchor="middle" pointer-events="none" x="0" y="0" font-size="10px" fill="#2A2C34" font-family="Helvetica Neue, Helvetica, Arial, sans-serif"> Shmi</text><text class="caption" text-anchor="middle" pointer-events="none" x="0" y="10" font-size="10px" fill="#2A2C34" font-family="Helvetica Neue, Helvetica, Arial, sans-serif"> Skywa…</text></g><g class="node" aria-label="graph-node86" transform="translate(131.82231022643978,-156.44083782827482)"><circle class="b-outline" cx="0" cy="0" r="25" fill="#57C7E3" stroke="#23b3d7" stroke-width="2px"/><text class="caption" text-anchor="middle" pointer-events="none" x="0" y="0" font-size="10px" fill="#2A2C34" font-family="Helvetica Neue, Helvetica, Arial, sans-serif"> Padmé</text><text class="caption" text-anchor="middle" pointer-events="none" x="0" y="10" font-size="10px" fill="#2A2C34" font-family="Helvetica Neue, Helvetica, Arial, sans-serif"> Amidala</text></g><g class="node" aria-label="graph-node19" transform="translate(143.2003559751044,-252.11884053101227)"><circle class="b-outline" cx="0" cy="0" r="25" fill="#57C7E3" stroke="#23b3d7" stroke-width="2px"/><text class="caption" text-anchor="middle" pointer-events="none" x="0" y="5" font-size="10px" fill="#2A2C34" font-family="Helvetica Neue, Helvetica, Arial, sans-serif"> Palpatine</text></g><g class="node" aria-label="graph-node10" transform="translate(-188.38549260463483,32.211072828103525)"><circle class="b-outline" cx="0" cy="0" r="25" fill="#57C7E3" stroke="#23b3d7" stroke-width="2px"/><text class="caption" text-anchor="middle" pointer-events="none" x="0" y="0" font-size="10px" fill="#2A2C34" font-family="Helvetica Neue, Helvetica, Arial, sans-serif"> Anakin</text><text class="caption" text-anchor="middle" pointer-events="none" x="0" y="10" font-size="10px" fill="#2A2C34" font-family="Helvetica Neue, Helvetica, Arial, sans-serif"> Skywa…</text></g><g class="node" aria-label="graph-node47" transform="translate(-35.545985550202325,-178.7986456400903)"><circle class="b-outline" cx="0" cy="0" r="25" fill="#57C7E3" stroke="#23b3d7" stroke-width="2px"/><text class="caption" text-anchor="middle" pointer-events="none" x="0" y="0" font-size="10px" fill="#2A2C34" font-family="Helvetica Neue, Helvetica, Arial, sans-serif"> Mace</text><text class="caption" text-anchor="middle" pointer-events="none" x="0" y="10" font-size="10px" fill="#2A2C34" font-family="Helvetica Neue, Helvetica, Arial, sans-serif"> Windu</text></g><g class="node" aria-label="graph-node63" transform="translate(-25.48688188710433,-274.6302926819995)"><circle class="b-outline" cx="0" cy="0" r="25" fill="#57C7E3" stroke="#23b3d7" stroke-width="2px"/><text class="caption" text-anchor="middle" pointer-events="none" x="0" y="5" font-size="10px" fill="#2A2C34" font-family="Helvetica Neue, Helvetica, Arial, sans-serif"> Dooku</text></g><g class="node" aria-label="graph-node24" transform="translate(-121.75204825931897,-225.6128771480008)"><circle class="b-outline" cx="0" cy="0" r="25" fill="#57C7E3" stroke="#23b3d7" stroke-width="2px"/><text class="caption" text-anchor="middle" pointer-events="none" x="0" y="5" font-size="10px" fill="#2A2C34" font-family="Helvetica Neue, Helvetica, Arial, sans-serif"> Lobot</text></g><g class="node" aria-label="graph-node20" transform="translate(-110.1544807138694,-114.48715410008447)"><circle class="b-outline" cx="0" cy="0" r="25" fill="#57C7E3" stroke="#23b3d7" stroke-width="2px"/><text class="caption" text-anchor="middle" pointer-events="none" x="0" y="5" font-size="10px" fill="#2A2C34" font-family="Helvetica Neue, Helvetica, Arial, sans-serif"> Boba Fett</text></g><g class="node" aria-label="graph-node56" transform="translate(297.3001932851704,-133.01178663247674)"><circle class="b-outline" cx="0" cy="0" r="25" fill="#57C7E3" stroke="#23b3d7" stroke-width="2px"/><text class="caption" text-anchor="middle" pointer-events="none" x="0" y="0" font-size="10px" fill="#2A2C34" font-family="Helvetica Neue, Helvetica, Arial, sans-serif"> Gregar</text><text class="caption" text-anchor="middle" pointer-events="none" x="0" y="10" font-size="10px" fill="#2A2C34" font-family="Helvetica Neue, Helvetica, Arial, sans-serif"> Typho</text></g><g class="node" aria-label="graph-node5" transform="translate(-104.31516853991914,83.89329362923449)"><circle class="b-outline" cx="0" cy="0" r="25" fill="#57C7E3" stroke="#23b3d7" stroke-width="2px"/><text class="caption" text-anchor="middle" pointer-events="none" x="0" y="0" font-size="10px" fill="#2A2C34" font-family="Helvetica Neue, Helvetica, Arial, sans-serif"> Owen</text><text class="caption" text-anchor="middle" pointer-events="none" x="0" y="10" font-size="10px" fill="#2A2C34" font-family="Helvetica Neue, Helvetica, Arial, sans-serif"> Lars</text></g><g class="node" aria-label="graph-node70" transform="translate(-196.01147815258307,-160.31724528575685)"><circle class="b-outline" cx="0" cy="0" r="25" fill="#57C7E3" stroke="#23b3d7" stroke-width="2px"/><text class="caption" text-anchor="middle" pointer-events="none" x="0" y="0" font-size="10px" fill="#2A2C34" font-family="Helvetica Neue, Helvetica, Arial, sans-serif"> Jocasta</text><text class="caption" text-anchor="middle" pointer-events="none" x="0" y="10" font-size="10px" fill="#2A2C34" font-family="Helvetica Neue, Helvetica, Arial, sans-serif"> Nu</text></g><g class="node" aria-label="graph-node8" transform="translate(-114.26077189276344,181.67989166157815)"><circle class="b-outline" cx="0" cy="0" r="25" fill="#57C7E3" stroke="#23b3d7" stroke-width="2px"/><text class="caption" text-anchor="middle" pointer-events="none" x="0" y="0" font-size="10px" fill="#2A2C34" font-family="Helvetica Neue, Helvetica, Arial, sans-serif"> Biggs</text><text class="caption" text-anchor="middle" pointer-events="none" x="0" y="10" font-size="10px" fill="#2A2C34" font-family="Helvetica Neue, Helvetica, Arial, sans-serif"> Darkli…</text></g><g class="node" aria-label="graph-node0" transform="translate(-103.4221397350467,-14.842186333405673)"><circle class="b-outline" cx="0" cy="0" r="25" fill="#57C7E3" stroke="#23b3d7" stroke-width="2px"/><text class="caption" text-anchor="middle" pointer-events="none" x="0" y="0" font-size="10px" fill="#2A2C34" font-family="Helvetica Neue, Helvetica, Arial, sans-serif"> Luke</text><text class="caption" text-anchor="middle" pointer-events="none" x="0" y="10" font-size="10px" fill="#2A2C34" font-family="Helvetica Neue, Helvetica, Arial, sans-serif"> Skywa…</text></g><g class="node" aria-label="graph-node64" transform="translate(32.94614440043806,304.8760312979733)"><circle class="b-outline" cx="0" cy="0" r="25" fill="#57C7E3" stroke="#23b3d7" stroke-width="2px"/><text class="caption" text-anchor="middle" pointer-events="none" x="0" y="-5" font-size="10px" fill="#2A2C34" font-family="Helvetica Neue, Helvetica, Arial, sans-serif"> Bail</text><text class="caption" text-anchor="middle" pointer-events="none" x="0" y="5" font-size="10px" fill="#2A2C34" font-family="Helvetica Neue, Helvetica, Arial, sans-serif"> Prestor</text><text class="caption" text-anchor="middle" pointer-events="none" x="0" y="15" font-size="10px" fill="#2A2C34" font-family="Helvetica Neue, Helvetica, Arial, sans-serif"> Org…</text></g><g class="node" aria-label="graph-node32" transform="translate(-277.88023503008526,-106.01585353669954)"><circle class="b-outline" cx="0" cy="0" r="25" fill="#57C7E3" stroke="#23b3d7" stroke-width="2px"/><text class="caption" text-anchor="middle" pointer-events="none" x="0" y="0" font-size="10px" fill="#2A2C34" font-family="Helvetica Neue, Helvetica, Arial, sans-serif"> Finis</text><text class="caption" text-anchor="middle" pointer-events="none" x="0" y="10" font-size="10px" fill="#2A2C34" font-family="Helvetica Neue, Helvetica, Arial, sans-serif"> Valorum</text></g><g class="node" aria-label="graph-node9" transform="translate(127.44439711861449,272.9014549802714)"><circle class="b-outline" cx="0" cy="0" r="25" fill="#57C7E3" stroke="#23b3d7" stroke-width="2px"/><text class="caption" text-anchor="middle" pointer-events="none" x="0" y="0" font-size="10px" fill="#2A2C34" font-family="Helvetica Neue, Helvetica, Arial, sans-serif"> Obi-Wan</text><text class="caption" text-anchor="middle" pointer-events="none" x="0" y="10" font-size="10px" fill="#2A2C34" font-family="Helvetica Neue, Helvetica, Arial, sans-serif"> Kenobi</text></g><g class="node" aria-label="graph-node26" transform="translate(-127.1634945588319,279.47515932361466)"><circle class="b-outline" cx="0" cy="0" r="25" fill="#57C7E3" stroke="#23b3d7" stroke-width="2px"/><text class="caption" text-anchor="middle" pointer-events="none" x="0" y="0" font-size="10px" fill="#2A2C34" font-family="Helvetica Neue, Helvetica, Arial, sans-serif"> Mon</text><text class="caption" text-anchor="middle" pointer-events="none" x="0" y="10" font-size="10px" fill="#2A2C34" font-family="Helvetica Neue, Helvetica, Arial, sans-serif"> Mothma</text></g><g class="node" aria-label="graph-node57" transform="translate(209.33763676952594,-95.02078576684579)"><circle class="b-outline" cx="0" cy="0" r="25" fill="#57C7E3" stroke="#23b3d7" stroke-width="2px"/><text class="caption" text-anchor="middle" pointer-events="none" x="0" y="5" font-size="10px" fill="#2A2C34" font-family="Helvetica Neue, Helvetica, Arial, sans-serif"> Cordé</text></g><g class="node" aria-label="graph-node4" transform="translate(52.615054993903655,210.2665269886297)"><circle class="b-outline" cx="0" cy="0" r="25" fill="#57C7E3" stroke="#23b3d7" stroke-width="2px"/><text class="caption" text-anchor="middle" pointer-events="none" x="0" y="0" font-size="10px" fill="#2A2C34" font-family="Helvetica Neue, Helvetica, Arial, sans-serif"> Leia</text><text class="caption" text-anchor="middle" pointer-events="none" x="0" y="10" font-size="10px" fill="#2A2C34" font-family="Helvetica Neue, Helvetica, Arial, sans-serif"> Organa</text></g><g class="node" aria-label="graph-node83" transform="translate(118.60238659441897,-58.21161163663384)"><circle class="b-outline" cx="0" cy="0" r="25" fill="#57C7E3" stroke="#23b3d7" stroke-width="2px"/><text class="caption" text-anchor="middle" pointer-events="none" x="0" y="0" font-size="10px" fill="#2A2C34" font-family="Helvetica Neue, Helvetica, Arial, sans-serif"> Poe</text><text class="caption" text-anchor="middle" pointer-events="none" x="0" y="10" font-size="10px" fill="#2A2C34" font-family="Helvetica Neue, Helvetica, Arial, sans-serif"> Dame…</text></g><g class="node" aria-label="graph-node82" transform="translate(39.37666356119197,-118.12652393276316)"><circle class="b-outline" cx="0" cy="0" r="25" fill="#57C7E3" stroke="#23b3d7" stroke-width="2px"/><text class="caption" text-anchor="middle" pointer-events="none" x="0" y="5" font-size="10px" fill="#2A2C34" font-family="Helvetica Neue, Helvetica, Arial, sans-serif"> Rey</text></g><g class="node" aria-label="graph-node30" transform="translate(139.17942575801672,38.99752953211396)"><circle class="b-outline" cx="0" cy="0" r="25" fill="#57C7E3" stroke="#23b3d7" stroke-width="2px"/><text class="caption" text-anchor="middle" pointer-events="none" x="0" y="0" font-size="10px" fill="#2A2C34" font-family="Helvetica Neue, Helvetica, Arial, sans-serif"> Qui-Gon</text><text class="caption" text-anchor="middle" pointer-events="none" x="0" y="10" font-size="10px" fill="#2A2C34" font-family="Helvetica Neue, Helvetica, Arial, sans-serif"> Jinn</text></g><g class="node" aria-label="graph-node81" transform="translate(72.23184367216813,113.37380108206995)"><circle class="b-outline" cx="0" cy="0" r="25" fill="#57C7E3" stroke="#23b3d7" stroke-width="2px"/><text class="caption" text-anchor="middle" pointer-events="none" x="0" y="5" font-size="10px" fill="#2A2C34" font-family="Helvetica Neue, Helvetica, Arial, sans-serif"> Finn</text></g><g class="node" aria-label="graph-node27" transform="translate(-23.276795131730207,143.67106544981186)"><circle class="b-outline" cx="0" cy="0" r="25" fill="#57C7E3" stroke="#23b3d7" stroke-width="2px"/><text class="caption" text-anchor="middle" pointer-events="none" x="0" y="0" font-size="10px" fill="#2A2C34" font-family="Helvetica Neue, Helvetica, Arial, sans-serif"> Arvel</text><text class="caption" text-anchor="middle" pointer-events="none" x="0" y="10" font-size="10px" fill="#2A2C34" font-family="Helvetica Neue, Helvetica, Arial, sans-serif"> Crynyd</text></g></g></svg>