<svg xmlns="http://www.w3.org/2000/svg" width="992.3004150390625" height="822.8294677734375" viewBox="-546.8763427734375 -362.2565002441406 992.3004150390625 822.8294677734375"><title>Neo4j Graph Visualization</title><desc>Created using Neo4j (http://www.neo4j.com/)</desc><g class="layer relationships"><g class="relationship" transform="translate(41.85866559802914 166.35740898296763) rotate(240.36935235532866)"><path class="outline" fill="#A5ABB6" stroke="none" d="M 25 0.5 L 60.76993894766805 0.5 L 60.76993894766805 -0.5 L 25 -0.5 Z M 77.87931394766805 0.5 L 113.6492528953361 0.5 L 113.6492528953361 3.5 L 120.6492528953361 0 L 113.6492528953361 -3.5 L 113.6492528953361 -0.5 L 77.87931394766805 -0.5 Z"/><text text-anchor="middle" pointer-events="none" font-size="8px" fill="#000000" x="69.32462644766805" y="3" transform="rotate(180 69.32462644766805 0)" font-family="sans-serif">OF</text></g><g class="relationship" transform="translate(41.85866559802914 166.35740898296763) rotate(431.1616608736363)"><path class="outline" fill="#A5ABB6" stroke="none" d="M 25 0.5 L 53.77322867430945 0.5 L 53.77322867430945 -0.5 L 25 -0.5 Z M 113.55057242430945 0.5 L 142.3238010986189 0.5 L 142.3238010986189 3.5 L 149.3238010986189 0 L 142.3238010986189 -3.5 L 142.3238010986189 -0.5 L 113.55057242430945 -0.5 Z"/><text text-anchor="middle" pointer-events="none" font-size="8px" fill="#000000" x="83.66190054930945" y="3" font-family="sans-serif">HOMEWORLD</text></g><g class="relationship" transform="translate(-228.6635983448139 -93.6405505469836) rotate(393.900092172075)"><path class="outline" fill="#A5ABB6" stroke="none" d="M 25 0.5 L 107.52937639757715 0.5 L 107.52937639757715 -0.5 L 25 -0.5 Z M 124.63875139757715 0.5 L 207.1681277951543 0.5 L 207.1681277951543 3.5 L 214.1681277951543 0 L 207.1681277951543 -3.5 L 207.1681277951543 -0.5 L 124.63875139757715 -0.5 Z"/><text text-anchor="middle" pointer-events="none" font-size="8px" fill="#000000" x="116.08406389757715" y="3" font-family="sans-serif">OF</text></g><g class="relationship" transform="translate(-228.6635983448139 -93.6405505469836) rotate(252.37279542348801)"><path class="outline" fill="#A5ABB6" stroke="none" d="M 25 0.5 L 49.02731843956526 0.5 L 49.02731843956526 -0.5 L 25 -0.5 Z M 108.80466218956526 0.5 L 132.83198062913053 0.5 L 132.83198062913053 3.5 L 139.83198062913053 0 L 132.83198062913053 -3.5 L 132.83198062913053 -0.5 L 108.80466218956526 -0.5 Z"/><text text-anchor="middle" pointer-events="none" font-size="8px" fill="#000000" x="78.91599031456526" y="3" transform="rotate(180 78.91599031456526 0)" font-family="sans-serif">HOMEWORLD</text></g><g class="relationship" transform="translate(20.703096638117813 262.71436024490487) rotate(257.15132813170146)"><path class="outline" fill="#A5ABB6" stroke="none" d="M 25 0.5 L 102.28823676312493 0.5 L 102.28823676312493 -0.5 L 25 -0.5 Z M 119.39761176312493 0.5 L 196.68584852624986 0.5 L 196.68584852624986 3.5 L 203.68584852624986 0 L 196.68584852624986 -3.5 L 196.68584852624986 -0.5 L 119.39761176312493 -0.5 Z"/><text text-anchor="middle" pointer-events="none" font-size="8px" fill="#000000" x="110.84292426312493" y="3" transform="rotate(180 110.84292426312493 0)" font-family="sans-serif">OF</text></g><g class="relationship" transform="translate(20.703096638117813 262.71436024490487) rotate(433.38597243061463)"><path class="outline" fill="#A5ABB6" stroke="none" d="M 25 0.5 L 54.71889357879604 0.5 L 54.71889357879604 -0.5 L 25 -0.5 Z M 114.49623732879604 0.5 L 144.21513090759208 0.5 L 144.21513090759208 3.5 L 151.21513090759208 0 L 144.21513090759208 -3.5 L 144.21513090759208 -0.5 L 114.49623732879604 -0.5 Z"/><text text-anchor="middle" pointer-events="none" font-size="8px" fill="#000000" x="84.60756545379604" y="3" font-family="sans-serif">HOMEWORLD</text></g><g class="relationship" transform="translate(140.51606480846175 39.80992630246307) rotate(180.0185664385108)"><path class="outline" fill="#A5ABB6" stroke="none" d="M 25 0.5 L 73.27901371696373 0.5 L 73.27901371696373 -0.5 L 25 -0.5 Z M 90.38838871696373 0.5 L 138.66740243392746 0.5 L 138.66740243392746 3.5 L 145.66740243392746 0 L 138.66740243392746 -3.5 L 138.66740243392746 -0.5 L 90.38838871696373 -0.5 Z"/><text text-anchor="middle" pointer-events="none" font-size="8px" fill="#000000" x="81.83370121696373" y="3" transform="rotate(180 81.83370121696373 0)" font-family="sans-serif">OF</text></g><g class="relationship" transform="translate(140.51606480846175 39.80992630246307) rotate(356.15763769583043)"><path class="outline" fill="#A5ABB6" stroke="none" d="M 25 0.5 L 104.87612096030333 0.5 L 104.87612096030333 -0.5 L 25 -0.5 Z M 164.65346471030333 0.5 L 244.52958567060665 0.5 L 244.52958567060665 3.5 L 251.52958567060665 0 L 244.52958567060665 -3.5 L 244.52958567060665 -0.5 L 164.65346471030333 -0.5 Z"/><text text-anchor="middle" pointer-events="none" font-size="8px" fill="#000000" x="134.76479283530333" y="3" font-family="sans-serif">HOMEWORLD</text></g><g class="relationship" transform="translate(209.5106941566289 198.29267234479266) rotate(213.4849056606684)"><path class="outline" fill="#A5ABB6" stroke="none" d="M 25 0.5 L 131.6222056440356 0.5 L 131.6222056440356 -0.5 L 25 -0.5 Z M 148.7315806440356 0.5 L 255.3537862880712 0.5 L 255.3537862880712 3.5 L 262.3537862880712 0 L 255.3537862880712 -3.5 L 255.3537862880712 -0.5 L 148.7315806440356 -0.5 Z"/><text text-anchor="middle" pointer-events="none" font-size="8px" fill="#000000" x="140.1768931440356" y="3" transform="rotate(180 140.1768931440356 0)" font-family="sans-serif">OF</text></g><g class="relationship" transform="translate(209.5106941566289 198.29267234479266) rotate(379.0897029795535)"><path class="outline" fill="#A5ABB6" stroke="none" d="M 25 0.5 L 60.58347320508554 0.5 L 60.58347320508554 -0.5 L 25 -0.5 Z M 120.36081695508554 0.5 L 155.94429016017108 0.5 L 155.94429016017108 3.5 L 162.94429016017108 0 L 155.94429016017108 -3.5 L 155.94429016017108 -0.5 L 120.36081695508554 -0.5 Z"/><text text-anchor="middle" pointer-events="none" font-size="8px" fill="#000000" x="90.47214508008554" y="3" font-family="sans-serif">HOMEWORLD</text></g><g class="relationship" transform="translate(226.1901084763099 104.66839188254326) rotate(194.21037961062768)"><path class="outline" fill="#A5ABB6" stroke="none" d="M 25 0.5 L 120.16173534217089 0.5 L 120.16173534217089 -0.5 L 25 -0.5 Z M 137.27111034217089 0.5 L 232.43284568434177 0.5 L 232.43284568434177 3.5 L 239.43284568434177 0 L 232.43284568434177 -3.5 L 232.43284568434177 -0.5 L 137.27111034217089 -0.5 Z"/><text text-anchor="middle" pointer-events="none" font-size="8px" fill="#000000" x="128.71642284217089" y="3" transform="rotate(180 128.71642284217089 0)" font-family="sans-serif">OF</text></g><g class="relationship" transform="translate(226.1901084763099 104.66839188254326) rotate(403.9416150784221)"><path class="outline" fill="#A5ABB6" stroke="none" d="M 25 0.5 L 78.36050762570048 0.5 L 78.36050762570048 -0.5 L 25 -0.5 Z M 138.13785137570048 0.5 L 191.49835900140096 0.5 L 191.49835900140096 3.5 L 198.49835900140096 0 L 191.49835900140096 -3.5 L 191.49835900140096 -0.5 L 138.13785137570048 -0.5 Z"/><text text-anchor="middle" pointer-events="none" font-size="8px" fill="#000000" x="108.24917950070048" y="3" font-family="sans-serif">HOMEWORLD</text></g><g class="relationship" transform="translate(-228.32883197992228 208.65386042159747) rotate(319.5602922478664)"><path class="outline" fill="#A5ABB6" stroke="none" d="M 25 0.5 L 118.13870274822065 0.5 L 118.13870274822065 -0.5 L 25 -0.5 Z M 135.24807774822065 0.5 L 228.3867804964413 0.5 L 228.3867804964413 3.5 L 235.3867804964413 0 L 228.3867804964413 -3.5 L 228.3867804964413 -0.5 L 135.24807774822065 -0.5 Z"/><text text-anchor="middle" pointer-events="none" font-size="8px" fill="#000000" x="126.69339024822065" y="3" font-family="sans-serif">OF</text></g><g class="relationship" transform="translate(-228.32883197992228 208.65386042159747) rotate(498.36440741652393)"><path class="outline" fill="#A5ABB6" stroke="none" d="M 25 0.5 L 96.36802129087658 0.5 L 96.36802129087658 -0.5 L 25 -0.5 Z M 156.14536504087658 0.5 L 227.51338633175317 0.5 L 227.51338633175317 3.5 L 234.51338633175317 0 L 227.51338633175317 -3.5 L 227.51338633175317 -0.5 L 156.14536504087658 -0.5 Z"/><text text-anchor="middle" pointer-events="none" font-size="8px" fill="#000000" x="126.25669316587658" y="3" transform="rotate(180 126.25669316587658 0)" font-family="sans-serif">HOMEWORLD</text></g><g class="relationship" transform="translate(-324.19977551566876 -92.20477113344563) rotate(384.1689941900803)"><path class="outline" fill="#A5ABB6" stroke="none" d="M 25 0.5 L 149.09568529769544 0.5 L 149.09568529769544 -0.5 L 25 -0.5 Z M 166.20506029769544 0.5 L 290.3007455953909 0.5 L 290.3007455953909 3.5 L 297.3007455953909 0 L 290.3007455953909 -3.5 L 290.3007455953909 -0.5 L 166.20506029769544 -0.5 Z"/><text text-anchor="middle" pointer-events="none" font-size="8px" fill="#000000" x="157.65037279769544" y="3" font-family="sans-serif">OF</text></g><g class="relationship" transform="translate(-324.19977551566876 -92.20477113344563) rotate(213.3103926925051)"><path class="outline" fill="#A5ABB6" stroke="none" d="M 25 0.5 L 44.6247552630317 0.5 L 44.6247552630317 -0.5 L 25 -0.5 Z M 104.4020990130317 0.5 L 124.0268542760634 0.5 L 124.0268542760634 3.5 L 131.0268542760634 0 L 124.0268542760634 -3.5 L 124.0268542760634 -0.5 L 104.4020990130317 -0.5 Z"/><text text-anchor="middle" pointer-events="none" font-size="8px" fill="#000000" x="74.5134271380317" y="3" transform="rotate(180 74.5134271380317 0)" font-family="sans-serif">HOMEWORLD</text></g><g class="relationship" transform="translate(216.4056818353903 -16.971382727054472) rotate(527.0432865053469)"><path class="outline" fill="#A5ABB6" stroke="none" d="M 25 0.5 L 114.44452106817995 0.5 L 114.44452106817995 -0.5 L 25 -0.5 Z M 131.55389606817994 0.5 L 220.9984171363599 0.5 L 220.9984171363599 3.5 L 227.9984171363599 0 L 220.9984171363599 -3.5 L 220.9984171363599 -0.5 L 131.55389606817994 -0.5 Z"/><text text-anchor="middle" pointer-events="none" font-size="8px" fill="#000000" x="122.99920856817995" y="3" transform="rotate(180 122.99920856817995 0)" font-family="sans-serif">OF</text></g><g class="relationship" transform="translate(216.4056818353903 -16.971382727054472) rotate(350.6154642760413)"><path class="outline" fill="#A5ABB6" stroke="none" d="M 25 0.5 L 62.00603833874918 0.5 L 62.00603833874918 -0.5 L 25 -0.5 Z M 121.78338208874918 0.5 L 158.78942042749836 0.5 L 158.78942042749836 3.5 L 165.78942042749836 0 L 158.78942042749836 -3.5 L 158.78942042749836 -0.5 L 121.78338208874918 -0.5 Z"/><text text-anchor="middle" pointer-events="none" font-size="8px" fill="#000000" x="91.89471021374918" y="3" font-family="sans-serif">HOMEWORLD</text></g><g class="relationship" transform="translate(3.219082071460661 -95.2712527442986) rotate(463.88195960870075)"><path class="outline" fill="#A5ABB6" stroke="none" d="M 25 0.5 L 57.48949134503401 0.5 L 57.48949134503401 -0.5 L 25 -0.5 Z M 74.59886634503401 0.5 L 107.08835769006802 0.5 L 107.08835769006802 3.5 L 114.08835769006802 0 L 107.08835769006802 -3.5 L 107.08835769006802 -0.5 L 74.59886634503401 -0.5 Z"/><text text-anchor="middle" pointer-events="none" font-size="8px" fill="#000000" x="66.04417884503401" y="3" transform="rotate(180 66.04417884503401 0)" font-family="sans-serif">OF</text></g><g class="relationship" transform="translate(3.219082071460661 -95.2712527442986) rotate(283.07158144520304)"><path class="outline" fill="#A5ABB6" stroke="none" d="M 25 0.5 L 88.76927042130492 0.5 L 88.76927042130492 -0.5 L 25 -0.5 Z M 148.54661417130492 0.5 L 212.31588459260985 0.5 L 212.31588459260985 3.5 L 219.31588459260985 0 L 212.31588459260985 -3.5 L 212.31588459260985 -0.5 L 148.54661417130492 -0.5 Z"/><text text-anchor="middle" pointer-events="none" font-size="8px" fill="#000000" x="118.65794229630492" y="3" font-family="sans-serif">HOMEWORLD</text></g><g class="relationship" transform="translate(134.25245413720478 -68.96631327328011) rotate(506.52316280590975)"><path class="outline" fill="#A5ABB6" stroke="none" d="M 25 0.5 L 86.49586505067566 0.5 L 86.49586505067566 -0.5 L 25 -0.5 Z M 103.60524005067566 0.5 L 165.10110510135132 0.5 L 165.10110510135132 3.5 L 172.10110510135132 0 L 165.10110510135132 -3.5 L 165.10110510135132 -0.5 L 103.60524005067566 -0.5 Z"/><text text-anchor="middle" pointer-events="none" font-size="8px" fill="#000000" x="95.05055255067566" y="3" transform="rotate(180 95.05055255067566 0)" font-family="sans-serif">OF</text></g><g class="relationship" transform="translate(134.25245413720478 -68.96631327328011) rotate(325.9340701494938)"><path class="outline" fill="#A5ABB6" stroke="none" d="M 25 0.5 L 99.76548275753629 0.5 L 99.76548275753629 -0.5 L 25 -0.5 Z M 159.5428265075363 0.5 L 234.30830926507258 0.5 L 234.30830926507258 3.5 L 241.30830926507258 0 L 234.30830926507258 -3.5 L 234.30830926507258 -0.5 L 159.5428265075363 -0.5 Z"/><text text-anchor="middle" pointer-events="none" font-size="8px" fill="#000000" x="129.6541546325363" y="3" font-family="sans-serif">HOMEWORLD</text></g><g class="relationship" transform="translate(-7.516867892086441 -192.5964394924615) rotate(455.56390838254043)"><path class="outline" fill="#A5ABB6" stroke="none" d="M 25 0.5 L 104.67077537315535 0.5 L 104.67077537315535 -0.5 L 25 -0.5 Z M 121.78015037315535 0.5 L 201.4509257463107 0.5 L 201.4509257463107 3.5 L 208.4509257463107 0 L 201.4509257463107 -3.5 L 201.4509257463107 -0.5 L 121.78015037315535 -0.5 Z"/><text text-anchor="middle" pointer-events="none" font-size="8px" fill="#000000" x="113.22546287315535" y="3" transform="rotate(180 113.22546287315535 0)" font-family="sans-serif">OF</text></g><g class="relationship" transform="translate(-7.516867892086441 -192.5964394924615) rotate(248.1366272385634)"><path class="outline" fill="#A5ABB6" stroke="none" d="M 25 0.5 L 39.118396476832984 0.5 L 39.118396476832984 -0.5 L 25 -0.5 Z M 98.89574022683298 0.5 L 113.01413670366597 0.5 L 113.01413670366597 3.5 L 120.01413670366597 0 L 113.01413670366597 -3.5 L 113.01413670366597 -0.5 L 98.89574022683298 -0.5 Z"/><text text-anchor="middle" pointer-events="none" font-size="8px" fill="#000000" x="69.00706835183298" y="3" transform="rotate(180 69.00706835183298 0)" font-family="sans-serif">HOMEWORLD</text></g><g class="relationship" transform="translate(-346.08409044626325 151.69880734359907) rotate(340.4892802053407)"><path class="outline" fill="#A5ABB6" stroke="none" d="M 25 0.5 L 155.53484866741465 0.5 L 155.53484866741465 -0.5 L 25 -0.5 Z M 172.64422366741465 0.5 L 303.1790723348293 0.5 L 303.1790723348293 3.5 L 310.1790723348293 0 L 303.1790723348293 -3.5 L 303.1790723348293 -0.5 L 172.64422366741465 -0.5 Z"/><text text-anchor="middle" pointer-events="none" font-size="8px" fill="#000000" x="164.08953616741465" y="3" font-family="sans-serif">OF</text></g><g class="relationship" transform="translate(-346.08409044626325 151.69880734359907) rotate(468.3772682279752)"><path class="outline" fill="#A5ABB6" stroke="none" d="M 25 0.5 L 87.46118631583718 0.5 L 87.46118631583718 -0.5 L 25 -0.5 Z M 147.23853006583718 0.5 L 209.69971638167436 0.5 L 209.69971638167436 3.5 L 216.69971638167436 0 L 209.69971638167436 -3.5 L 209.69971638167436 -0.5 L 147.23853006583718 -0.5 Z"/><text text-anchor="middle" pointer-events="none" font-size="8px" fill="#000000" x="117.34985819083718" y="3" transform="rotate(180 117.34985819083718 0)" font-family="sans-serif">HOMEWORLD</text></g><g class="relationship" transform="translate(-133.91353528496722 -112.0398383770779) rotate(415.64464264426994)"><path class="outline" fill="#A5ABB6" stroke="none" d="M 25 0.5 L 79.88028111329795 0.5 L 79.88028111329795 -0.5 L 25 -0.5 Z M 96.98965611329795 0.5 L 151.8699372265959 0.5 L 151.8699372265959 3.5 L 158.8699372265959 0 L 151.8699372265959 -3.5 L 151.8699372265959 -0.5 L 96.98965611329795 -0.5 Z"/><text text-anchor="middle" pointer-events="none" font-size="8px" fill="#000000" x="88.43496861329795" y="3" font-family="sans-serif">OF</text></g><g class="relationship" transform="translate(-133.91353528496722 -112.0398383770779) rotate(223.79271551397767)"><path class="outline" fill="#A5ABB6" stroke="none" d="M 25 0.5 L 66.81583211910544 0.5 L 66.81583211910544 -0.5 L 25 -0.5 Z M 126.59317586910544 0.5 L 168.40900798821087 0.5 L 168.40900798821087 3.5 L 175.40900798821087 0 L 168.40900798821087 -3.5 L 168.40900798821087 -0.5 L 126.59317586910544 -0.5 Z"/><text text-anchor="middle" pointer-events="none" font-size="8px" fill="#000000" x="96.70450399410544" y="3" transform="rotate(180 96.70450399410544 0)" font-family="sans-serif">HOMEWORLD</text></g><g class="relationship" transform="translate(180.20697510329387 -155.42943835594897) rotate(497.1428456362272)"><path class="outline" fill="#A5ABB6" stroke="none" d="M 25 0.5 L 131.42652511984895 0.5 L 131.42652511984895 -0.5 L 25 -0.5 Z M 148.53590011984895 0.5 L 254.9624252396979 0.5 L 254.9624252396979 3.5 L 261.9624252396979 0 L 254.9624252396979 -3.5 L 254.9624252396979 -0.5 L 148.53590011984895 -0.5 Z"/><text text-anchor="middle" pointer-events="none" font-size="8px" fill="#000000" x="139.98121261984895" y="3" transform="rotate(180 139.98121261984895 0)" font-family="sans-serif">OF</text></g><g class="relationship" transform="translate(180.20697510329387 -155.42943835594897) rotate(340.2495629754212)"><path class="outline" fill="#A5ABB6" stroke="none" d="M 25 0.5 L 59.39633543219854 0.5 L 59.39633543219854 -0.5 L 25 -0.5 Z M 119.17367918219854 0.5 L 153.57001461439708 0.5 L 153.57001461439708 3.5 L 160.57001461439708 0 L 153.57001461439708 -3.5 L 153.57001461439708 -0.5 L 119.17367918219854 -0.5 Z"/><text text-anchor="middle" pointer-events="none" font-size="8px" fill="#000000" x="89.28500730719854" y="3" font-family="sans-serif">HOMEWORLD</text></g><g class="relationship" transform="translate(-103.79232819106474 -206.25687292181294) rotate(433.33547233280206)"><path class="outline" fill="#A5ABB6" stroke="none" d="M 25 0.5 L 116.3437671186164 0.5 L 116.3437671186164 -0.5 L 25 -0.5 Z M 133.4531421186164 0.5 L 224.7969092372328 0.5 L 224.7969092372328 3.5 L 231.7969092372328 0 L 224.7969092372328 -3.5 L 224.7969092372328 -0.5 L 133.4531421186164 -0.5 Z"/><text text-anchor="middle" pointer-events="none" font-size="8px" fill="#000000" x="124.8984546186164" y="3" font-family="sans-serif">OF</text></g><g class="relationship" transform="translate(-103.79232819106474 -206.25687292181294) rotate(243.4922070448913)"><path class="outline" fill="#A5ABB6" stroke="none" d="M 25 0.5 L 33.71780525709872 0.5 L 33.71780525709872 -0.5 L 25 -0.5 Z M 93.49514900709872 0.5 L 102.21295426419744 0.5 L 102.21295426419744 3.5 L 109.21295426419744 0 L 102.21295426419744 -3.5 L 102.21295426419744 -0.5 L 93.49514900709872 -0.5 Z"/><text text-anchor="middle" pointer-events="none" font-size="8px" fill="#000000" x="63.60647713209872" y="3" transform="rotate(180 63.60647713209872 0)" font-family="sans-serif">HOMEWORLD</text></g><g class="relationship" transform="translate(-283.27968503773803 244.17358331747857) rotate(321.076684763267)"><path class="outline" fill="#A5ABB6" stroke="none" d="M 25 0.5 L 150.62680839178307 0.5 L 150.62680839178307 -0.5 L 25 -0.5 Z M 167.73618339178307 0.5 L 293.36299178356614 0.5 L 293.36299178356614 3.5 L 300.36299178356614 0 L 293.36299178356614 -3.5 L 293.36299178356614 -0.5 L 167.73618339178307 -0.5 Z"/><text text-anchor="middle" pointer-events="none" font-size="8px" fill="#000000" x="159.18149589178307" y="3" font-family="sans-serif">OF</text></g><g class="relationship" transform="translate(-283.27968503773803 244.17358331747857) rotate(495.4375746394377)"><path class="outline" fill="#A5ABB6" stroke="none" d="M 25 0.5 L 64.16104856227885 0.5 L 64.16104856227885 -0.5 L 25 -0.5 Z M 123.93839231227885 0.5 L 163.0994408745577 0.5 L 163.0994408745577 3.5 L 170.0994408745577 0 L 163.0994408745577 -3.5 L 163.0994408745577 -0.5 L 123.93839231227885 -0.5 Z"/><text text-anchor="middle" pointer-events="none" font-size="8px" fill="#000000" x="94.04972043727885" y="3" transform="rotate(180 94.04972043727885 0)" font-family="sans-serif">HOMEWORLD</text></g><g class="relationship" transform="translate(-202.77156693656607 278.93726089574074) rotate(305.8183190675492)"><path class="outline" fill="#A5ABB6" stroke="none" d="M 25 0.5 L 135.42927880251344 0.5 L 135.42927880251344 -0.5 L 25 -0.5 Z M 152.53865380251344 0.5 L 262.9679326050269 0.5 L 262.9679326050269 3.5 L 269.9679326050269 0 L 262.9679326050269 -3.5 L 262.9679326050269 -0.5 L 152.53865380251344 -0.5 Z"/><text text-anchor="middle" pointer-events="none" font-size="8px" fill="#000000" x="143.98396630251344" y="3" font-family="sans-serif">OF</text></g><g class="relationship" transform="translate(-202.77156693656607 278.93726089574074) rotate(515.0484958524349)"><path class="outline" fill="#A5ABB6" stroke="none" d="M 25 0.5 L 87.66693748017478 0.5 L 87.66693748017478 -0.5 L 25 -0.5 Z M 147.4442812301748 0.5 L 210.11121871034956 0.5 L 210.11121871034956 3.5 L 217.11121871034956 0 L 210.11121871034956 -3.5 L 210.11121871034956 -0.5 L 147.4442812301748 -0.5 Z"/><text text-anchor="middle" pointer-events="none" font-size="8px" fill="#000000" x="117.55560935517478" y="3" transform="rotate(180 117.55560935517478 0)" font-family="sans-serif">HOMEWORLD</text></g><g class="relationship" transform="translate(190.28213479406787 294.5926058499344) rotate(229.14037362808455)"><path class="outline" fill="#A5ABB6" stroke="none" d="M 25 0.5 L 156.418833914325 0.5 L 156.418833914325 -0.5 L 25 -0.5 Z M 173.528208914325 0.5 L 304.94704282865 0.5 L 304.94704282865 3.5 L 311.94704282865 0 L 304.94704282865 -3.5 L 304.94704282865 -0.5 L 173.528208914325 -0.5 Z"/><text text-anchor="middle" pointer-events="none" font-size="8px" fill="#000000" x="164.973521414325" y="3" transform="rotate(180 164.973521414325 0)" font-family="sans-serif">OF</text></g><g class="relationship" transform="translate(190.28213479406787 294.5926058499344) rotate(349.96460894381426)"><path class="outline" fill="#A5ABB6" stroke="none" d="M 25 0.5 L 66.55918054560487 0.5 L 66.55918054560487 -0.5 L 25 -0.5 Z M 126.33652429560487 0.5 L 167.89570484120975 0.5 L 167.89570484120975 3.5 L 174.89570484120975 0 L 167.89570484120975 -3.5 L 167.89570484120975 -0.5 L 126.33652429560487 -0.5 Z"/><text text-anchor="middle" pointer-events="none" font-size="8px" fill="#000000" x="96.44785242060487" y="3" font-family="sans-serif">HOMEWORLD</text></g><g class="relationship" transform="translate(-261.5086047749673 160.9458551458013) rotate(332.35323017592873)"><path class="outline" fill="#A5ABB6" stroke="none" d="M 25 0.5 L 118.53388792591278 0.5 L 118.53388792591278 -0.5 L 25 -0.5 Z M 135.64326292591278 0.5 L 229.17715085182556 0.5 L 229.17715085182556 3.5 L 236.17715085182556 0 L 229.17715085182556 -3.5 L 229.17715085182556 -0.5 L 135.64326292591278 -0.5 Z"/><text text-anchor="middle" pointer-events="none" font-size="8px" fill="#000000" x="127.08857542591278" y="3" font-family="sans-serif">OF</text></g><g class="relationship" transform="translate(-261.5086047749673 160.9458551458013) rotate(486.1438062242842)"><path class="outline" fill="#A5ABB6" stroke="none" d="M 25 0.5 L 102.9058099954436 0.5 L 102.9058099954436 -0.5 L 25 -0.5 Z M 162.6831537454436 0.5 L 240.5889637408872 0.5 L 240.5889637408872 3.5 L 247.5889637408872 0 L 240.5889637408872 -3.5 L 240.5889637408872 -0.5 L 162.6831537454436 -0.5 Z"/><text text-anchor="middle" pointer-events="none" font-size="8px" fill="#000000" x="132.7944818704436" y="3" transform="rotate(180 132.7944818704436 0)" font-family="sans-serif">HOMEWORLD</text></g><g class="relationship" transform="translate(-148.12916057771255 305.0746531257345) rotate(293.97291443921415)"><path class="outline" fill="#A5ABB6" stroke="none" d="M 25 0.5 L 133.12923686731682 0.5 L 133.12923686731682 -0.5 L 25 -0.5 Z M 150.23861186731682 0.5 L 258.36784873463364 0.5 L 258.36784873463364 3.5 L 265.36784873463364 0 L 258.36784873463364 -3.5 L 258.36784873463364 -0.5 L 150.23861186731682 -0.5 Z"/><text text-anchor="middle" pointer-events="none" font-size="8px" fill="#000000" x="141.68392436731682" y="3" font-family="sans-serif">OF</text></g><g class="relationship" transform="translate(-148.12916057771255 305.0746531257345) rotate(524.5063616267323)"><path class="outline" fill="#A5ABB6" stroke="none" d="M 25 0.5 L 108.85868826429578 0.5 L 108.85868826429578 -0.5 L 25 -0.5 Z M 168.63603201429578 0.5 L 252.49472027859156 0.5 L 252.49472027859156 3.5 L 259.49472027859156 0 L 252.49472027859156 -3.5 L 252.49472027859156 -0.5 L 168.63603201429578 -0.5 Z"/><text text-anchor="middle" pointer-events="none" font-size="8px" fill="#000000" x="138.74736013929578" y="3" transform="rotate(180 138.74736013929578 0)" font-family="sans-serif">HOMEWORLD</text></g><g class="relationship" transform="translate(-128.2585464227065 356.1786108954088) rotate(287.22604318217185)"><path class="outline" fill="#A5ABB6" stroke="none" d="M 25 0.5 L 153.58737142005194 0.5 L 153.58737142005194 -0.5 L 25 -0.5 Z M 170.69674642005194 0.5 L 299.2841178401039 0.5 L 299.2841178401039 3.5 L 306.2841178401039 0 L 299.2841178401039 -3.5 L 299.2841178401039 -0.5 L 170.69674642005194 -0.5 Z"/><text text-anchor="middle" pointer-events="none" font-size="8px" fill="#000000" x="162.14205892005194" y="3" font-family="sans-serif">OF</text></g><g class="relationship" transform="translate(-128.2585464227065 356.1786108954088) rotate(535.1606466021647)"><path class="outline" fill="#A5ABB6" stroke="none" d="M 25 0.5 L 114.15069888604799 0.5 L 114.15069888604799 -0.5 L 25 -0.5 Z M 173.928042636048 0.5 L 263.078741522096 0.5 L 263.078741522096 3.5 L 270.078741522096 0 L 263.078741522096 -3.5 L 263.078741522096 -0.5 L 173.928042636048 -0.5 Z"/><text text-anchor="middle" pointer-events="none" font-size="8px" fill="#000000" x="144.039370761048" y="3" transform="rotate(180 144.039370761048 0)" font-family="sans-serif">HOMEWORLD</text></g><g class="relationship" transform="translate(-317.5344264120448 84.64722894006981) rotate(351.1214821384317)"><path class="outline" fill="#A5ABB6" stroke="none" d="M 25 0.5 L 133.37948231697396 0.5 L 133.37948231697396 -0.5 L 25 -0.5 Z M 150.48885731697396 0.5 L 258.8683396339479 0.5 L 258.8683396339479 3.5 L 265.8683396339479 0 L 258.8683396339479 -3.5 L 258.8683396339479 -0.5 L 150.48885731697396 -0.5 Z"/><text text-anchor="middle" pointer-events="none" font-size="8px" fill="#000000" x="141.93416981697396" y="3" font-family="sans-serif">OF</text></g><g class="relationship" transform="translate(-317.5344264120448 84.64722894006981) rotate(194.32549274731497)"><path class="outline" fill="#A5ABB6" stroke="none" d="M 25 0.5 L 69.99698768409286 0.5 L 69.99698768409286 -0.5 L 25 -0.5 Z M 129.77433143409286 0.5 L 174.77131911818572 0.5 L 174.77131911818572 3.5 L 181.77131911818572 0 L 174.77131911818572 -3.5 L 174.77131911818572 -0.5 L 129.77433143409286 -0.5 Z"/><text text-anchor="middle" pointer-events="none" font-size="8px" fill="#000000" x="99.88565955909286" y="3" transform="rotate(180 99.88565955909286 0)" font-family="sans-serif">HOMEWORLD</text></g><g class="relationship" transform="translate(-173.46120933967867 199.47924886033502) rotate(311.89943752682706)"><path class="outline" fill="#A5ABB6" stroke="none" d="M 25 0.5 L 95.2412563049544 0.5 L 95.2412563049544 -0.5 L 25 -0.5 Z M 112.3506313049544 0.5 L 182.5918876099088 0.5 L 182.5918876099088 3.5 L 189.5918876099088 0 L 182.5918876099088 -3.5 L 182.5918876099088 -0.5 L 112.3506313049544 -0.5 Z"/><text text-anchor="middle" pointer-events="none" font-size="8px" fill="#000000" x="103.7959438049544" y="3" font-family="sans-serif">OF</text></g><g class="relationship" transform="translate(-173.46120933967867 199.47924886033502) rotate(503.87788261337687)"><path class="outline" fill="#A5ABB6" stroke="none" d="M 25 0.5 L 120.63197391931007 0.5 L 120.63197391931007 -0.5 L 25 -0.5 Z M 180.40931766931007 0.5 L 276.04129158862014 0.5 L 276.04129158862014 3.5 L 283.04129158862014 0 L 276.04129158862014 -3.5 L 276.04129158862014 -0.5 L 180.40931766931007 -0.5 Z"/><text text-anchor="middle" pointer-events="none" font-size="8px" fill="#000000" x="150.52064579431007" y="3" transform="rotate(180 150.52064579431007 0)" font-family="sans-serif">HOMEWORLD</text></g><g class="relationship" transform="translate(115.28763390006698 233.0372102292934) rotate(233.0397096458168)"><path class="outline" fill="#A5ABB6" stroke="none" d="M 25 0.5 L 108.89018695485184 0.5 L 108.89018695485184 -0.5 L 25 -0.5 Z M 125.99956195485184 0.5 L 209.88974890970368 0.5 L 209.88974890970368 3.5 L 216.88974890970368 0 L 209.88974890970368 -3.5 L 209.88974890970368 -0.5 L 125.99956195485184 -0.5 Z"/><text text-anchor="middle" pointer-events="none" font-size="8px" fill="#000000" x="117.44487445485184" y="3" transform="rotate(180 117.44487445485184 0)" font-family="sans-serif">OF</text></g><g class="relationship" transform="translate(115.28763390006698 233.0372102292934) rotate(365.61439062801185)"><path class="outline" fill="#A5ABB6" stroke="none" d="M 25 0.5 L 103.18240996293551 0.5 L 103.18240996293551 -0.5 L 25 -0.5 Z M 162.9597537129355 0.5 L 241.14216367587102 0.5 L 241.14216367587102 3.5 L 248.14216367587102 0 L 241.14216367587102 -3.5 L 241.14216367587102 -0.5 L 162.9597537129355 -0.5 Z"/><text text-anchor="middle" pointer-events="none" font-size="8px" fill="#000000" x="133.0710818379355" y="3" font-family="sans-serif">HOMEWORLD</text></g><g class="relationship" transform="translate(82.20376729916583 -153.11676587502015) rotate(480.2224661863388)"><path class="outline" fill="#A5ABB6" stroke="none" d="M 25 0.5 L 99.55068867729476 0.5 L 99.55068867729476 -0.5 L 25 -0.5 Z M 116.66006367729476 0.5 L 191.21075235458952 0.5 L 191.21075235458952 3.5 L 198.21075235458952 0 L 191.21075235458952 -3.5 L 191.21075235458952 -0.5 L 116.66006367729476 -0.5 Z"/><text text-anchor="middle" pointer-events="none" font-size="8px" fill="#000000" x="108.10537617729476" y="3" transform="rotate(180 108.10537617729476 0)" font-family="sans-serif">OF</text></g><g class="relationship" transform="translate(82.20376729916583 -153.11676587502015) rotate(299.3671383635261)"><path class="outline" fill="#A5ABB6" stroke="none" d="M 25 0.5 L 55.13428670086866 0.5 L 55.13428670086866 -0.5 L 25 -0.5 Z M 114.91163045086866 0.5 L 145.0459171517373 0.5 L 145.0459171517373 3.5 L 152.0459171517373 0 L 145.0459171517373 -3.5 L 145.0459171517373 -0.5 L 114.91163045086866 -0.5 Z"/><text text-anchor="middle" pointer-events="none" font-size="8px" fill="#000000" x="85.02295857586866" y="3" font-family="sans-serif">HOMEWORLD</text></g><g class="relationship" transform="translate(-284.8872188763941 -3.7406786877083995) rotate(369.68961870240724)"><path class="outline" fill="#A5ABB6" stroke="none" d="M 25 0.5 L 117.1565881012962 0.5 L 117.1565881012962 -0.5 L 25 -0.5 Z M 134.2659631012962 0.5 L 226.4225512025924 0.5 L 226.4225512025924 3.5 L 233.4225512025924 0 L 226.4225512025924 -3.5 L 226.4225512025924 -0.5 L 134.2659631012962 -0.5 Z"/><text text-anchor="middle" pointer-events="none" font-size="8px" fill="#000000" x="125.7112756012962" y="3" font-family="sans-serif">OF</text></g><g class="relationship" transform="translate(-284.8872188763941 -3.7406786877083995) rotate(530.9221458513944)"><path class="outline" fill="#A5ABB6" stroke="none" d="M 25 0.5 L 84.58350823685731 0.5 L 84.58350823685731 -0.5 L 25 -0.5 Z M 144.3608519868573 0.5 L 203.94436022371463 0.5 L 203.94436022371463 3.5 L 210.94436022371463 0 L 203.94436022371463 -3.5 L 203.94436022371463 -0.5 L 144.3608519868573 -0.5 Z"/><text text-anchor="middle" pointer-events="none" font-size="8px" fill="#000000" x="114.47218011185731" y="3" transform="rotate(180 114.47218011185731 0)" font-family="sans-serif">HOMEWORLD</text></g><g class="relationship" transform="translate(-52.36004059980078 197.012851789623) rotate(278.03840776549373)"><path class="outline" fill="#A5ABB6" stroke="none" d="M 25 0.5 L 67.35465959965204 0.5 L 67.35465959965204 -0.5 L 25 -0.5 Z M 84.46403459965204 0.5 L 126.81869419930408 0.5 L 126.81869419930408 3.5 L 133.81869419930408 0 L 126.81869419930408 -3.5 L 126.81869419930408 -0.5 L 84.46403459965204 -0.5 Z"/><text text-anchor="middle" pointer-events="none" font-size="8px" fill="#000000" x="75.90934709965204" y="3" font-family="sans-serif">OF</text></g><g class="relationship" transform="translate(-52.36004059980078 197.012851789623) rotate(442.4582049065843)"><path class="outline" fill="#A5ABB6" stroke="none" d="M 25 0.5 L 53.6207021236587 0.5 L 53.6207021236587 -0.5 L 25 -0.5 Z M 113.3980458736587 0.5 L 142.0187479973174 0.5 L 142.0187479973174 3.5 L 149.0187479973174 0 L 142.0187479973174 -3.5 L 142.0187479973174 -0.5 L 113.3980458736587 -0.5 Z"/><text text-anchor="middle" pointer-events="none" font-size="8px" fill="#000000" x="83.5093739986587" y="3" font-family="sans-serif">HOMEWORLD</text></g><g class="relationship" transform="translate(245.47905428143167 -81.82100948106611) rotate(516.1985820968823)"><path class="outline" fill="#A5ABB6" stroke="none" d="M 25 0.5 L 138.57129153979918 0.5 L 138.57129153979918 -0.5 L 25 -0.5 Z M 155.68066653979918 0.5 L 269.25195807959835 0.5 L 269.25195807959835 3.5 L 276.25195807959835 0 L 269.25195807959835 -3.5 L 269.25195807959835 -0.5 L 155.68066653979918 -0.5 Z"/><text text-anchor="middle" pointer-events="none" font-size="8px" fill="#000000" x="147.12597903979918" y="3" transform="rotate(180 147.12597903979918 0)" font-family="sans-serif">OF</text></g><g class="relationship" transform="translate(245.47905428143167 -81.82100948106611) rotate(308.7437498068758)"><path class="outline" fill="#A5ABB6" stroke="none" d="M 25 0.5 L 53.99929483922955 0.5 L 53.99929483922955 -0.5 L 25 -0.5 Z M 113.77663858922955 0.5 L 142.7759334284591 0.5 L 142.7759334284591 3.5 L 149.7759334284591 0 L 142.7759334284591 -3.5 L 142.7759334284591 -0.5 L 113.77663858922955 -0.5 Z"/><text text-anchor="middle" pointer-events="none" font-size="8px" fill="#000000" x="83.88796671422955" y="3" font-family="sans-serif">HOMEWORLD</text></g><g class="relationship" transform="translate(135.86956493091975 137.07226985929387) rotate(210.3778558159545)"><path class="outline" fill="#A5ABB6" stroke="none" d="M 25 0.5 L 84.16597249088672 0.5 L 84.16597249088672 -0.5 L 25 -0.5 Z M 101.27534749088672 0.5 L 160.44131998177343 0.5 L 160.44131998177343 3.5 L 167.44131998177343 0 L 160.44131998177343 -3.5 L 160.44131998177343 -0.5 L 101.27534749088672 -0.5 Z"/><text text-anchor="middle" pointer-events="none" font-size="8px" fill="#000000" x="92.72065999088672" y="3" transform="rotate(180 92.72065999088672 0)" font-family="sans-serif">OF</text></g><g class="relationship" transform="translate(135.86956493091975 137.07226985929387) rotate(386.0266028324175)"><path class="outline" fill="#A5ABB6" stroke="none" d="M 25 0.5 L 106.41358301353225 0.5 L 106.41358301353225 -0.5 L 25 -0.5 Z M 166.19092676353225 0.5 L 247.6045097770645 0.5 L 247.6045097770645 3.5 L 254.6045097770645 0 L 247.6045097770645 -3.5 L 247.6045097770645 -0.5 L 166.19092676353225 -0.5 Z"/><text text-anchor="middle" pointer-events="none" font-size="8px" fill="#000000" x="136.30225488853225" y="3" font-family="sans-serif">HOMEWORLD</text></g><g class="relationship" transform="translate(-30.151328664960005 39.75462230268225) rotate(180.73639609371997)"><path class="outline" fill="#A5ABB6" stroke="none" d="M 25 0.5 L 210.49397866366692 0.5 L 210.49397866366692 -0.5 L 25 -0.5 Z M 270.2713224136669 0.5 L 455.76530107733385 0.5 L 455.76530107733385 3.5 L 462.76530107733385 0 L 455.76530107733385 -3.5 L 455.76530107733385 -0.5 L 270.2713224136669 -0.5 Z"/><text text-anchor="middle" pointer-events="none" font-size="8px" fill="#000000" x="240.38265053866692" y="3" transform="rotate(180 240.38265053866692 0)" font-family="sans-serif">HOMEWORLD</text></g></g><g class="layer nodes"><g class="node" aria-label="graph-node140" transform="translate(98.14765844999363,331.34327781173226)"><circle class="outline" cx="0" cy="0" r="25" fill="#D9C8AE" stroke="#c0a378" stroke-width="2px"/><text class="caption" text-anchor="middle" pointer-events="none" x="0" y="0" font-size="10px" fill="#2A2C34" font-family="sans-serif"> Concord</text><text class="caption" text-anchor="middle" pointer-events="none" x="0" y="10" font-size="10px" fill="#2A2C34" font-family="sans-serif"> Dawn</text></g><g class="node" aria-label="graph-node109" transform="translate(-278.57842100275263,-250.7331739166014)"><circle class="outline" cx="0" cy="0" r="25" fill="#D9C8AE" stroke="#c0a378" stroke-width="2px"/><text class="caption" text-anchor="middle" pointer-events="none" x="0" y="5" font-size="10px" fill="#2A2C34" font-family="sans-serif"> Corellia</text></g><g class="node" aria-label="graph-node117" transform="translate(71.0870524009901,431.57296785039455)"><circle class="outline" cx="0" cy="0" r="25" fill="#D9C8AE" stroke="#c0a378" stroke-width="2px"/><text class="caption" text-anchor="middle" pointer-events="none" x="0" y="5" font-size="10px" fill="#2A2C34" font-family="sans-serif"> Socorro</text></g><g class="node" aria-label="graph-node108" transform="translate(416.4240659454127,21.279231232670245)"><circle class="outline" cx="0" cy="0" r="25" fill="#D9C8AE" stroke="#c0a378" stroke-width="2px"/><text class="caption" text-anchor="middle" pointer-events="none" x="0" y="5" font-size="10px" fill="#2A2C34" font-family="sans-serif"> Eriadu</text></g><g class="node" aria-label="graph-node93" transform="translate(-454.59262874283263,-177.8907272905851)"><circle class="outline" cx="0" cy="0" r="25" fill="#D9C8AE" stroke="#c0a378" stroke-width="2px"/><text class="caption" text-anchor="middle" pointer-events="none" x="0" y="5" font-size="10px" fill="#2A2C34" font-family="sans-serif"> Bespin</text></g><g class="node" aria-label="graph-node129" transform="translate(404.64161629883296,-48.08144418207651)"><circle class="outline" cx="0" cy="0" r="25" fill="#D9C8AE" stroke="#c0a378" stroke-width="2px"/><text class="caption" text-anchor="middle" pointer-events="none" x="0" y="0" font-size="10px" fill="#2A2C34" font-family="sans-serif"> Haruun</text><text class="caption" text-anchor="middle" pointer-events="none" x="0" y="10" font-size="10px" fill="#2A2C34" font-family="sans-serif"> Kal</text></g><g class="node" aria-label="graph-node107" transform="translate(58.47556349718275,-333.25648910302374)"><circle class="outline" cx="0" cy="0" r="25" fill="#D9C8AE" stroke="#c0a378" stroke-width="2px"/><text class="caption" text-anchor="middle" pointer-events="none" x="0" y="5" font-size="10px" fill="#2A2C34" font-family="sans-serif"> Stewjon</text></g><g class="node" aria-label="graph-node89" transform="translate(354.86054370369453,-218.13798082930495)"><circle class="outline" cx="0" cy="0" r="25" fill="#D9C8AE" stroke="#c0a378" stroke-width="2px"/><text class="caption" text-anchor="middle" pointer-events="none" x="0" y="5" font-size="10px" fill="#2A2C34" font-family="sans-serif"> Alderaan</text></g><g class="node" aria-label="graph-node97" transform="translate(-61.51934530981654,-327.1803622940245)"><circle class="outline" cx="0" cy="0" r="25" fill="#D9C8AE" stroke="#c0a378" stroke-width="2px"/><text class="caption" text-anchor="middle" pointer-events="none" x="0" y="5" font-size="10px" fill="#2A2C34" font-family="sans-serif"> Kamino</text></g><g class="node" aria-label="graph-node113" transform="translate(-163.69419105191415,-326.36051116030904)"><circle class="outline" cx="0" cy="0" r="25" fill="#D9C8AE" stroke="#c0a378" stroke-width="2px"/><text class="caption" text-anchor="middle" pointer-events="none" x="0" y="5" font-size="10px" fill="#2A2C34" font-family="sans-serif"> Bestine IV</text></g><g class="node" aria-label="graph-node119" transform="translate(169.02779213170354,-307.41143685227297)"><circle class="outline" cx="0" cy="0" r="25" fill="#D9C8AE" stroke="#c0a378" stroke-width="2px"/><text class="caption" text-anchor="middle" pointer-events="none" x="0" y="5" font-size="10px" fill="#2A2C34" font-family="sans-serif"> Chandrila</text></g><g class="node" aria-label="graph-node139" transform="translate(-29.520188030597062,369.5262303698679)"><circle class="outline" cx="0" cy="0" r="25" fill="#D9C8AE" stroke="#c0a378" stroke-width="2px"/><text class="caption" text-anchor="middle" pointer-events="none" x="0" y="5" font-size="10px" fill="#2A2C34" font-family="sans-serif"> Serenno</text></g><g class="node" aria-label="graph-node73" transform="translate(41.85866559802914,166.35740898296763)"><circle class="outline" cx="0" cy="0" r="25" fill="#F79767" stroke="#f36924" stroke-width="2px"/><text class="caption" text-anchor="middle" pointer-events="none" x="0" y="0" font-size="10px" fill="#FFFFFF" font-family="sans-serif"> Jango</text><text class="caption" text-anchor="middle" pointer-events="none" x="0" y="10" font-size="10px" fill="#FFFFFF" font-family="sans-serif"> Fett</text></g><g class="node" aria-label="graph-node19" transform="translate(-228.6635983448139,-93.6405505469836)"><circle class="outline" cx="0" cy="0" r="25" fill="#F79767" stroke="#f36924" stroke-width="2px"/><text class="caption" text-anchor="middle" pointer-events="none" x="0" y="5" font-size="10px" fill="#FFFFFF" font-family="sans-serif"> Han Solo</text></g><g class="node" aria-label="graph-node29" transform="translate(20.703096638117813,262.71436024490487)"><circle class="outline" cx="0" cy="0" r="25" fill="#F79767" stroke="#f36924" stroke-width="2px"/><text class="caption" text-anchor="middle" pointer-events="none" x="0" y="0" font-size="10px" fill="#FFFFFF" font-family="sans-serif"> Lando</text><text class="caption" text-anchor="middle" pointer-events="none" x="0" y="10" font-size="10px" fill="#FFFFFF" font-family="sans-serif"> Calris…</text></g><g class="node" aria-label="graph-node17" transform="translate(140.51606480846175,39.80992630246307)"><circle class="outline" cx="0" cy="0" r="25" fill="#F79767" stroke="#f36924" stroke-width="2px"/><text class="caption" text-anchor="middle" pointer-events="none" x="0" y="0" font-size="10px" fill="#FFFFFF" font-family="sans-serif"> Wilhuff</text><text class="caption" text-anchor="middle" pointer-events="none" x="0" y="10" font-size="10px" fill="#FFFFFF" font-family="sans-serif"> Tarkin</text></g><g class="node" aria-label="graph-node64" transform="translate(226.1901084763099,104.66839188254326)"><circle class="outline" cx="0" cy="0" r="25" fill="#F79767" stroke="#f36924" stroke-width="2px"/><text class="caption" text-anchor="middle" pointer-events="none" x="0" y="0" font-size="10px" fill="#FFFFFF" font-family="sans-serif"> Gregar</text><text class="caption" text-anchor="middle" pointer-events="none" x="0" y="10" font-size="10px" fill="#FFFFFF" font-family="sans-serif"> Typho</text></g><g class="node" aria-label="graph-node6" transform="translate(-228.32883197992228,208.65386042159747)"><circle class="outline" cx="0" cy="0" r="25" fill="#F79767" stroke="#f36924" stroke-width="2px"/><text class="caption" text-anchor="middle" pointer-events="none" x="0" y="0" font-size="10px" fill="#FFFFFF" font-family="sans-serif"> Luke</text><text class="caption" text-anchor="middle" pointer-events="none" x="0" y="10" font-size="10px" fill="#FFFFFF" font-family="sans-serif"> Skywa…</text></g><g class="node" aria-label="graph-node30" transform="translate(-324.19977551566876,-92.20477113344563)"><circle class="outline" cx="0" cy="0" r="25" fill="#F79767" stroke="#f36924" stroke-width="2px"/><text class="caption" text-anchor="middle" pointer-events="none" x="0" y="5" font-size="10px" fill="#FFFFFF" font-family="sans-serif"> Lobot</text></g><g class="node" aria-label="graph-node10" transform="translate(134.25245413720478,-68.96631327328011)"><circle class="outline" cx="0" cy="0" r="25" fill="#F79767" stroke="#f36924" stroke-width="2px"/><text class="caption" text-anchor="middle" pointer-events="none" x="0" y="0" font-size="10px" fill="#FFFFFF" font-family="sans-serif"> Leia</text><text class="caption" text-anchor="middle" pointer-events="none" x="0" y="10" font-size="10px" fill="#FFFFFF" font-family="sans-serif"> Organa</text></g><g class="node" aria-label="graph-node26" transform="translate(-7.516867892086441,-192.5964394924615)"><circle class="outline" cx="0" cy="0" r="25" fill="#F79767" stroke="#f36924" stroke-width="2px"/><text class="caption" text-anchor="middle" pointer-events="none" x="0" y="5" font-size="10px" fill="#FFFFFF" font-family="sans-serif"> Boba Fett</text></g><g class="node" aria-label="graph-node22" transform="translate(-133.91353528496722,-112.0398383770779)"><circle class="outline" cx="0" cy="0" r="25" fill="#F79767" stroke="#f36924" stroke-width="2px"/><text class="caption" text-anchor="middle" pointer-events="none" x="0" y="0" font-size="10px" fill="#FFFFFF" font-family="sans-serif"> Wedge</text><text class="caption" text-anchor="middle" pointer-events="none" x="0" y="10" font-size="10px" fill="#FFFFFF" font-family="sans-serif"> Antilles</text></g><g class="node" aria-label="graph-node85" transform="translate(180.20697510329387,-155.42943835594897)"><circle class="outline" cx="0" cy="0" r="25" fill="#F79767" stroke="#f36924" stroke-width="2px"/><text class="caption" text-anchor="middle" pointer-events="none" x="0" y="0" font-size="10px" fill="#FFFFFF" font-family="sans-serif"> Raymus</text><text class="caption" text-anchor="middle" pointer-events="none" x="0" y="10" font-size="10px" fill="#FFFFFF" font-family="sans-serif"> Antilles</text></g><g class="node" aria-label="graph-node23" transform="translate(-103.79232819106474,-206.25687292181294)"><circle class="outline" cx="0" cy="0" r="25" fill="#F79767" stroke="#f36924" stroke-width="2px"/><text class="caption" text-anchor="middle" pointer-events="none" x="0" y="0" font-size="10px" fill="#FFFFFF" font-family="sans-serif"> Jek Tono</text><text class="caption" text-anchor="middle" pointer-events="none" x="0" y="10" font-size="10px" fill="#FFFFFF" font-family="sans-serif"> Porkins</text></g><g class="node" aria-label="graph-node66" transform="translate(-283.27968503773803,244.17358331747857)"><circle class="outline" cx="0" cy="0" r="25" fill="#F79767" stroke="#f36924" stroke-width="2px"/><text class="caption" text-anchor="middle" pointer-events="none" x="0" y="0" font-size="10px" fill="#FFFFFF" font-family="sans-serif"> Cliegg</text><text class="caption" text-anchor="middle" pointer-events="none" x="0" y="10" font-size="10px" fill="#FFFFFF" font-family="sans-serif"> Lars</text></g><g class="node" aria-label="graph-node12" transform="translate(-261.5086047749673,160.9458551458013)"><circle class="outline" cx="0" cy="0" r="25" fill="#F79767" stroke="#f36924" stroke-width="2px"/><text class="caption" text-anchor="middle" pointer-events="none" x="0" y="-5" font-size="10px" fill="#FFFFFF" font-family="sans-serif"> Beru</text><text class="caption" text-anchor="middle" pointer-events="none" x="0" y="5" font-size="10px" fill="#FFFFFF" font-family="sans-serif"> Whitesun</text><text class="caption" text-anchor="middle" pointer-events="none" x="0" y="15" font-size="10px" fill="#FFFFFF" font-family="sans-serif"> lars</text></g><g class="node" aria-label="graph-node11" transform="translate(-148.12916057771255,305.0746531257345)"><circle class="outline" cx="0" cy="0" r="25" fill="#F79767" stroke="#f36924" stroke-width="2px"/><text class="caption" text-anchor="middle" pointer-events="none" x="0" y="0" font-size="10px" fill="#FFFFFF" font-family="sans-serif"> Owen</text><text class="caption" text-anchor="middle" pointer-events="none" x="0" y="10" font-size="10px" fill="#FFFFFF" font-family="sans-serif"> Lars</text></g><g class="node" aria-label="graph-node9" transform="translate(-128.2585464227065,356.1786108954088)"><circle class="outline" cx="0" cy="0" r="25" fill="#F79767" stroke="#f36924" stroke-width="2px"/><text class="caption" text-anchor="middle" pointer-events="none" x="0" y="0" font-size="10px" fill="#FFFFFF" font-family="sans-serif"> Darth</text><text class="caption" text-anchor="middle" pointer-events="none" x="0" y="10" font-size="10px" fill="#FFFFFF" font-family="sans-serif"> Vader</text></g><g class="node" aria-label="graph-node14" transform="translate(-173.46120933967867,199.47924886033502)"><circle class="outline" cx="0" cy="0" r="25" fill="#F79767" stroke="#f36924" stroke-width="2px"/><text class="caption" text-anchor="middle" pointer-events="none" x="0" y="0" font-size="10px" fill="#FFFFFF" font-family="sans-serif"> Biggs</text><text class="caption" text-anchor="middle" pointer-events="none" x="0" y="10" font-size="10px" fill="#FFFFFF" font-family="sans-serif"> Darkli…</text></g><g class="node" aria-label="graph-node65" transform="translate(115.28763390006698,233.0372102292934)"><circle class="outline" cx="0" cy="0" r="25" fill="#F79767" stroke="#f36924" stroke-width="2px"/><text class="caption" text-anchor="middle" pointer-events="none" x="0" y="5" font-size="10px" fill="#FFFFFF" font-family="sans-serif"> Cordé</text></g><g class="node" aria-label="graph-node32" transform="translate(82.20376729916583,-153.11676587502015)"><circle class="outline" cx="0" cy="0" r="25" fill="#F79767" stroke="#f36924" stroke-width="2px"/><text class="caption" text-anchor="middle" pointer-events="none" x="0" y="0" font-size="10px" fill="#FFFFFF" font-family="sans-serif"> Mon</text><text class="caption" text-anchor="middle" pointer-events="none" x="0" y="10" font-size="10px" fill="#FFFFFF" font-family="sans-serif"> Mothma</text></g><g class="node" aria-label="graph-node78" transform="translate(-284.8872188763941,-3.7406786877083995)"><circle class="outline" cx="0" cy="0" r="25" fill="#F79767" stroke="#f36924" stroke-width="2px"/><text class="caption" text-anchor="middle" pointer-events="none" x="0" y="0" font-size="10px" fill="#FFFFFF" font-family="sans-serif"> Jocasta</text><text class="caption" text-anchor="middle" pointer-events="none" x="0" y="10" font-size="10px" fill="#FFFFFF" font-family="sans-serif"> Nu</text></g><g class="node" aria-label="graph-node71" transform="translate(-52.36004059980078,197.012851789623)"><circle class="outline" cx="0" cy="0" r="25" fill="#F79767" stroke="#f36924" stroke-width="2px"/><text class="caption" text-anchor="middle" pointer-events="none" x="0" y="5" font-size="10px" fill="#FFFFFF" font-family="sans-serif"> Dooku</text></g><g class="node" aria-label="graph-node72" transform="translate(245.47905428143167,-81.82100948106611)"><circle class="outline" cx="0" cy="0" r="25" fill="#F79767" stroke="#f36924" stroke-width="2px"/><text class="caption" text-anchor="middle" pointer-events="none" x="0" y="-5" font-size="10px" fill="#FFFFFF" font-family="sans-serif"> Bail</text><text class="caption" text-anchor="middle" pointer-events="none" x="0" y="5" font-size="10px" fill="#FFFFFF" font-family="sans-serif"> Prestor</text><text class="caption" text-anchor="middle" pointer-events="none" x="0" y="15" font-size="10px" fill="#FFFFFF" font-family="sans-serif"> Org…</text></g><g class="node" aria-label="graph-node70" transform="translate(135.86956493091975,137.07226985929387)"><circle class="outline" cx="0" cy="0" r="25" fill="#F79767" stroke="#f36924" stroke-width="2px"/><text class="caption" text-anchor="middle" pointer-events="none" x="0" y="5" font-size="10px" fill="#FFFFFF" font-family="sans-serif"> Dormé</text></g><g class="node" aria-label="graph-node148" transform="translate(-30.151328664960005,39.75462230268225)"><circle class="outline" cx="0" cy="0" r="25" fill="#8DCC93" stroke="#5db665" stroke-width="2px"/><text class="caption" text-anchor="middle" pointer-events="none" x="0" y="5" font-size="10px" fill="#2A2C34" font-family="sans-serif"> Human</text></g><g class="node" aria-label="graph-node95" transform="translate(387.11949618435557,259.7594897838497)"><circle class="outline" cx="0" cy="0" r="25" fill="#D9C8AE" stroke="#c0a378" stroke-width="2px"/><text class="caption" text-anchor="middle" pointer-events="none" x="0" y="5" font-size="10px" fill="#2A2C34" font-family="sans-serif"> Naboo</text></g><g class="node" aria-label="graph-node88" transform="translate(-422.2853766051828,381.0721207144188)"><circle class="outline" cx="0" cy="0" r="25" fill="#D9C8AE" stroke="#c0a378" stroke-width="2px"/><text class="caption" text-anchor="middle" pointer-events="none" x="0" y="5" font-size="10px" fill="#2A2C34" font-family="sans-serif"> Tatooine</text></g><g class="node" aria-label="graph-node96" transform="translate(-517.8763438845043,33.485773591997344)"><circle class="outline" cx="0" cy="0" r="25" fill="#D9C8AE" stroke="#c0a378" stroke-width="2px"/><text class="caption" text-anchor="middle" pointer-events="none" x="0" y="5" font-size="10px" fill="#2A2C34" font-family="sans-serif"> Coruscant</text></g><g class="node" aria-label="graph-node39" transform="translate(209.5106941566289,198.29267234479266)"><circle class="outline" cx="0" cy="0" r="25" fill="#F79767" stroke="#f36924" stroke-width="2px"/><text class="caption" text-anchor="middle" pointer-events="none" x="0" y="0" font-size="10px" fill="#FFFFFF" font-family="sans-serif"> Padmé</text><text class="caption" text-anchor="middle" pointer-events="none" x="0" y="10" font-size="10px" fill="#FFFFFF" font-family="sans-serif"> Amidala</text></g><g class="node" aria-label="graph-node55" transform="translate(216.4056818353903,-16.971382727054472)"><circle class="outline" cx="0" cy="0" r="25" fill="#F79767" stroke="#f36924" stroke-width="2px"/><text class="caption" text-anchor="middle" pointer-events="none" x="0" y="0" font-size="10px" fill="#FFFFFF" font-family="sans-serif"> Mace</text><text class="caption" text-anchor="middle" pointer-events="none" x="0" y="10" font-size="10px" fill="#FFFFFF" font-family="sans-serif"> Windu</text></g><g class="node" aria-label="graph-node15" transform="translate(3.219082071460661,-95.2712527442986)"><circle class="outline" cx="0" cy="0" r="25" fill="#F79767" stroke="#f36924" stroke-width="2px"/><text class="caption" text-anchor="middle" pointer-events="none" x="0" y="0" font-size="10px" fill="#FFFFFF" font-family="sans-serif"> Obi-Wan</text><text class="caption" text-anchor="middle" pointer-events="none" x="0" y="10" font-size="10px" fill="#FFFFFF" font-family="sans-serif"> Kenobi</text></g><g class="node" aria-label="graph-node16" transform="translate(-346.08409044626325,151.69880734359907)"><circle class="outline" cx="0" cy="0" r="25" fill="#F79767" stroke="#f36924" stroke-width="2px"/><text class="caption" text-anchor="middle" pointer-events="none" x="0" y="0" font-size="10px" fill="#FFFFFF" font-family="sans-serif"> Anakin</text><text class="caption" text-anchor="middle" pointer-events="none" x="0" y="10" font-size="10px" fill="#FFFFFF" font-family="sans-serif"> Skywa…</text></g><g class="node" aria-label="graph-node47" transform="translate(-202.77156693656607,278.93726089574074)"><circle class="outline" cx="0" cy="0" r="25" fill="#F79767" stroke="#f36924" stroke-width="2px"/><text class="caption" text-anchor="middle" pointer-events="none" x="0" y="0" font-size="10px" fill="#FFFFFF" font-family="sans-serif"> Shmi</text><text class="caption" text-anchor="middle" pointer-events="none" x="0" y="10" font-size="10px" fill="#FFFFFF" font-family="sans-serif"> Skywa…</text></g><g class="node" aria-label="graph-node25" transform="translate(190.28213479406787,294.5926058499344)"><circle class="outline" cx="0" cy="0" r="25" fill="#F79767" stroke="#f36924" stroke-width="2px"/><text class="caption" text-anchor="middle" pointer-events="none" x="0" y="5" font-size="10px" fill="#FFFFFF" font-family="sans-serif"> Palpatine</text></g><g class="node" aria-label="graph-node38" transform="translate(-317.5344264120448,84.64722894006981)"><circle class="outline" cx="0" cy="0" r="25" fill="#F79767" stroke="#f36924" stroke-width="2px"/><text class="caption" text-anchor="middle" pointer-events="none" x="0" y="0" font-size="10px" fill="#FFFFFF" font-family="sans-serif"> Finis</text><text class="caption" text-anchor="middle" pointer-events="none" x="0" y="10" font-size="10px" fill="#FFFFFF" font-family="sans-serif"> Valorum</text></g></g></svg>