<svg xmlns="http://www.w3.org/2000/svg" width="233.00027465820312" height="183.90057373046875" viewBox="-76.70378875732422 -102.3742904663086 233.00027465820312 183.90057373046875"><title>Neo4j Graph Visualization</title><desc>Created using Neo4j (http://www.neo4j.com/)</desc><g class="layer relationships"><g class="relationship" transform="translate(36.08632129602621 52.52628781803125) rotate(235.69772836889825)"><path class="b-outline" fill="#A5ABB6" stroke="none" d="M 25 0.5 L 38.2776617438043 0.5 L 38.2776617438043 -0.5 L 25 -0.5 Z M 103.4026617438043 0.5 L 116.6803234876086 0.5 L 116.6803234876086 3.5 L 123.6803234876086 0 L 116.6803234876086 -3.5 L 116.6803234876086 -0.5 L 103.4026617438043 -0.5 Z"/><text text-anchor="middle" pointer-events="none" font-size="8px" fill="#000000" x="70.8401617438043" y="3" transform="rotate(180 70.8401617438043 0)" font-family="Helvetica Neue, Helvetica, Arial, sans-serif">IDENTIFIES_AS</text></g><g class="relationship" transform="translate(36.08632129602621 52.52628781803125) rotate(305.9218913425788)"><path class="b-outline" fill="#A5ABB6" stroke="none" d="M 25 0.5 L 59.45852583173179 0.5 L 59.45852583173179 -0.5 L 25 -0.5 Z M 89.00930708173179 0.5 L 123.46783291346358 0.5 L 123.46783291346358 3.5 L 130.46783291346358 0 L 123.46783291346358 -3.5 L 123.46783291346358 -0.5 L 89.00930708173179 -0.5 Z"/><text text-anchor="middle" pointer-events="none" font-size="8px" fill="#000000" x="74.23391645673179" y="3" font-family="Helvetica Neue, Helvetica, Arial, sans-serif">FROM</text></g><g class="relationship" transform="translate(-47.70378356755158 -70.2949518733616) rotate(358.9919162951421)"><path class="b-outline" fill="#A5ABB6" stroke="none" d="M 25 0.5 L 42.41796933411757 0.5 L 42.41796933411757 -0.5 L 25 -0.5 Z M 125.60937558411757 0.5 L 143.02734491823514 0.5 L 143.02734491823514 3.5 L 150.02734491823514 0 L 143.02734491823514 -3.5 L 143.02734491823514 -0.5 L 125.60937558411757 -0.5 Z"/><text text-anchor="middle" pointer-events="none" font-size="8px" fill="#000000" x="84.01367245911757" y="3" font-family="Helvetica Neue, Helvetica, Arial, sans-serif">ORIGINATED_FROM</text></g></g><g class="layer nodes"><g class="node" aria-label="graph-node-1" transform="translate(36.08632129602621,52.52628781803125)"><circle class="b-outline" cx="0" cy="0" r="25" fill="#57C7E3" stroke="#23b3d7" stroke-width="2px"/><text class="caption" text-anchor="middle" pointer-events="none" x="0" y="5" font-size="10px" fill="#2A2C34" font-family="Helvetica Neue, Helvetica, Arial, sans-serif"> Character</text></g><g class="node" aria-label="graph-node-2" transform="translate(127.29647112455724,-73.37429057248113)"><circle class="b-outline" cx="0" cy="0" r="25" fill="#F79767" stroke="#f36924" stroke-width="2px"/><text class="caption" text-anchor="middle" pointer-events="none" x="0" y="5" font-size="10px" fill="#FFFFFF" font-family="Helvetica Neue, Helvetica, Arial, sans-serif"> Planet</text></g><g class="node" aria-label="graph-node-3" transform="translate(-47.70378356755158,-70.2949518733616)"><circle class="b-outline" cx="0" cy="0" r="25" fill="#C990C0" stroke="#b261a5" stroke-width="2px"/><text class="caption" text-anchor="middle" pointer-events="none" x="0" y="5" font-size="10px" fill="#FFFFFF" font-family="Helvetica Neue, Helvetica, Arial, sans-serif"> Species</text></g></g></svg>