<svg xmlns="http://www.w3.org/2000/svg" width="499.6570129394531" height="314.8072509765625" viewBox="-287.4460144042969 -186.28152465820312 499.6570129394531 314.8072509765625"><title>Neo4j Graph Visualization</title><desc>Created using Neo4j (http://www.neo4j.com/)</desc><g class="layer relationships"><g class="relationship" transform="translate(-187.89740738803403 99.52570358216418) rotate(358.5826233563996)"><path class="outline" fill="#A5ABB6" stroke="none" d="M 25 0.5 L 167.55239787273257 0.5 L 167.55239787273257 -0.5 L 25 -0.5 Z M 196.66958537273257 0.5 L 339.22198324546514 0.5 L 339.22198324546514 3.5 L 346.22198324546514 0 L 339.22198324546514 -3.5 L 339.22198324546514 -0.5 L 196.66958537273257 -0.5 Z"/><text text-anchor="middle" pointer-events="none" font-size="8px" fill="#000000" x="182.11099162273257" y="3" font-family="sans-serif">PILOT</text></g><g class="relationship" transform="translate(-187.89740738803403 99.52570358216418) rotate(340.4247406099423)"><path class="outline" fill="#A5ABB6" stroke="none" d="M 25 0.5 L 99.60833562255594 0.5 L 99.60833562255594 -0.5 L 25 -0.5 Z M 128.72552312255596 0.5 L 203.33385874511188 0.5 L 203.33385874511188 3.5 L 210.33385874511188 0 L 203.33385874511188 -3.5 L 203.33385874511188 -0.5 L 128.72552312255596 -0.5 Z"/><text text-anchor="middle" pointer-events="none" font-size="8px" fill="#000000" x="114.16692937255594" y="3" font-family="sans-serif">PILOT</text></g><g class="relationship" transform="translate(-187.89740738803403 99.52570358216418) rotate(308.44885039623676)"><path class="outline" fill="#A5ABB6" stroke="none" d="M 25 0.5 L 127.68065645913416 0.5 L 127.68065645913416 -0.5 L 25 -0.5 Z M 189.70018770913416 0.5 L 292.3808441682683 0.5 L 292.3808441682683 3.5 L 299.3808441682683 0 L 292.3808441682683 -3.5 L 292.3808441682683 -0.5 L 189.70018770913416 -0.5 Z"/><text text-anchor="middle" pointer-events="none" font-size="8px" fill="#000000" x="158.69042208413416" y="3" font-family="sans-serif">APPEARED_IN</text></g><g class="relationship" transform="translate(-126.48942560218262 -75.46110871127583) rotate(330.59904485407066)"><path class="outline" fill="#A5ABB6" stroke="none" d="M 25 0.5 L 46.0091875111315 0.5 L 46.0091875111315 -0.5 L 25 -0.5 Z M 108.0287187611315 0.5 L 129.037906272263 0.5 L 129.037906272263 3.5 L 136.037906272263 0 L 129.037906272263 -3.5 L 129.037906272263 -0.5 L 108.0287187611315 -0.5 Z"/><text text-anchor="middle" pointer-events="none" font-size="8px" fill="#000000" x="77.0189531361315" y="3" font-family="sans-serif">APPEARED_IN</text></g><g class="relationship" transform="translate(183.2109945608171 90.34339190882315) rotate(235.3231725504557)"><path class="outline" fill="#A5ABB6" stroke="none" d="M 25 0.5 L 114.36464497653577 0.5 L 114.36464497653577 -0.5 L 25 -0.5 Z M 176.38417622653577 0.5 L 265.74882120307154 0.5 L 265.74882120307154 3.5 L 272.74882120307154 0 L 265.74882120307154 -3.5 L 265.74882120307154 -0.5 L 176.38417622653577 -0.5 Z"/><text text-anchor="middle" pointer-events="none" font-size="8px" fill="#000000" x="145.37441060153577" y="3" transform="rotate(180 145.37441060153577 0)" font-family="sans-serif">APPEARED_IN</text></g><g class="relationship" transform="translate(-258.44600287840376 -157.2815236345913) rotate(360.581655987947)"><path class="outline" fill="#A5ABB6" stroke="none" d="M 25 0.5 L 101.62410296863402 0.5 L 101.62410296863402 -0.5 L 25 -0.5 Z M 163.64363421863402 0.5 L 240.26773718726804 0.5 L 240.26773718726804 3.5 L 247.26773718726804 0 L 240.26773718726804 -3.5 L 240.26773718726804 -0.5 L 163.64363421863402 -0.5 Z"/><text text-anchor="middle" pointer-events="none" font-size="8px" fill="#000000" x="132.63386859363402" y="3" font-family="sans-serif">APPEARED_IN</text></g><g class="relationship" transform="translate(33.83467550521666 20.678328941756092) rotate(263.4787185645043)"><path class="outline" fill="#A5ABB6" stroke="none" d="M 25 0.5 L 53.658651533971636 0.5 L 53.658651533971636 -0.5 L 25 -0.5 Z M 115.67818278397164 0.5 L 144.33683431794327 0.5 L 144.33683431794327 3.5 L 151.33683431794327 0 L 144.33683431794327 -3.5 L 144.33683431794327 -0.5 L 115.67818278397164 -0.5 Z"/><text text-anchor="middle" pointer-events="none" font-size="8px" fill="#000000" x="84.66841715897164" y="3" transform="rotate(180 84.66841715897164 0)" font-family="sans-serif">APPEARED_IN</text></g><g class="relationship" transform="translate(-187.89740738803403 99.52570358216418) rotate(254.638972966388)"><path class="outline" fill="#A5ABB6" stroke="none" d="M 25 0.5 L 121.10598262862894 0.5 L 121.10598262862894 -0.5 L 25 -0.5 Z M 138.21535762862894 0.5 L 234.32134025725787 0.5 L 234.32134025725787 3.5 L 241.32134025725787 0 L 234.32134025725787 -3.5 L 234.32134025725787 -0.5 L 138.21535762862894 -0.5 Z"/><text text-anchor="middle" pointer-events="none" font-size="8px" fill="#000000" x="129.66067012862894" y="3" transform="rotate(180 129.66067012862894 0)" font-family="sans-serif">OF</text></g><g class="relationship" transform="translate(-258.44600287840376 -157.2815236345913) rotate(391.80121393979533)"><path class="outline" fill="#A5ABB6" stroke="none" d="M 25 0.5 L 44.24366446862493 0.5 L 44.24366446862493 -0.5 L 25 -0.5 Z M 104.02100821862493 0.5 L 123.26467268724986 0.5 L 123.26467268724986 3.5 L 130.26467268724986 0 L 123.26467268724986 -3.5 L 123.26467268724986 -0.5 L 104.02100821862493 -0.5 Z"/><text text-anchor="middle" pointer-events="none" font-size="8px" fill="#000000" x="74.13233634362493" y="3" font-family="sans-serif">HOMEWORLD</text></g><g class="relationship" transform="translate(-187.89740738803403 99.52570358216418) rotate(289.33746155969465)"><path class="outline" fill="#A5ABB6" stroke="none" d="M 25 0.5 L 59.33581882679769 0.5 L 59.33581882679769 -0.5 L 25 -0.5 Z M 119.11316257679769 0.5 L 153.44898140359538 0.5 L 153.44898140359538 3.5 L 160.44898140359538 0 L 153.44898140359538 -3.5 L 153.44898140359538 -0.5 L 119.11316257679769 -0.5 Z"/><text text-anchor="middle" pointer-events="none" font-size="8px" fill="#000000" x="89.22449070179769" y="3" font-family="sans-serif">HOMEWORLD</text></g></g><g class="layer nodes"><g class="node" aria-label="graph-node-5" transform="translate(33.83467550521666,20.678328941756092)"><circle class="outline" cx="0" cy="0" r="25" fill="#C990C0" stroke="#b261a5" stroke-width="2px"/><text class="caption" text-anchor="middle" pointer-events="none" x="0" y="5" font-size="10px" fill="#FFFFFF" font-family="sans-serif"> Vehicle</text></g><g class="node" aria-label="graph-node-2" transform="translate(-187.89740738803403,99.52570358216418)"><circle class="outline" cx="0" cy="0" r="25" fill="#F79767" stroke="#f36924" stroke-width="2px"/><text class="caption" text-anchor="middle" pointer-events="none" x="0" y="5" font-size="10px" fill="#FFFFFF" font-family="sans-serif"> Character</text></g><g class="node" aria-label="graph-node-1" transform="translate(13.807704569651847,-154.51756020071156)"><circle class="outline" cx="0" cy="0" r="25" fill="#57C7E3" stroke="#23b3d7" stroke-width="2px"/><text class="caption" text-anchor="middle" pointer-events="none" x="0" y="5" font-size="10px" fill="#2A2C34" font-family="sans-serif"> Film</text></g><g class="node" aria-label="graph-node-4" transform="translate(183.2109945608171,90.34339190882315)"><circle class="outline" cx="0" cy="0" r="25" fill="#F16667" stroke="#eb2728" stroke-width="2px"/><text class="caption" text-anchor="middle" pointer-events="none" x="0" y="5" font-size="10px" fill="#FFFFFF" font-family="sans-serif"> Starship</text></g><g class="node" aria-label="graph-node-3" transform="translate(-126.48942560218262,-75.46110871127583)"><circle class="outline" cx="0" cy="0" r="25" fill="#D9C8AE" stroke="#c0a378" stroke-width="2px"/><text class="caption" text-anchor="middle" pointer-events="none" x="0" y="5" font-size="10px" fill="#2A2C34" font-family="sans-serif"> Planet</text></g><g class="node" aria-label="graph-node-6" transform="translate(-258.44600287840376,-157.2815236345913)"><circle class="outline" cx="0" cy="0" r="25" fill="#8DCC93" stroke="#5db665" stroke-width="2px"/><text class="caption" text-anchor="middle" pointer-events="none" x="0" y="5" font-size="10px" fill="#2A2C34" font-family="sans-serif"> Species</text></g></g></svg>